<svg xmlns="http://www.w3.org/2000/svg" viewBox="0 0 400 400" width="400" height="400">
  <!-- Gradient waves pattern -->
  <defs>
    <linearGradient id="waveGradient1" x1="0%" y1="0%" x2="100%" y2="100%">
      <stop offset="0%" style="stop-color:#87CEEB;stop-opacity:0.3"/>
      <stop offset="50%" style="stop-color:#00BFFF;stop-opacity:0.2"/>
      <stop offset="100%" style="stop-color:#4682B4;stop-opacity:0.1"/>
    </linearGradient>
    <linearGradient id="waveGradient2" x1="0%" y1="0%" x2="100%" y2="100%">
      <stop offset="0%" style="stop-color:#00BFFF;stop-opacity:0.2"/>
      <stop offset="50%" style="stop-color:#87CEEB;stop-opacity:0.15"/>
      <stop offset="100%" style="stop-color:#B0E0E6;stop-opacity:0.1"/>
    </linearGradient>
  </defs>
  
  <!-- Wave patterns -->
  <path d="M0 100 Q100 50 200 100 Q300 150 400 100 L400 200 Q300 150 200 200 Q100 250 0 200 Z" fill="url(#waveGradient1)"/>
  <path d="M0 150 Q100 100 200 150 Q300 200 400 150 L400 250 Q300 200 200 250 Q100 300 0 250 Z" fill="url(#waveGradient2)"/>
  <path d="M0 200 Q100 150 200 200 Q300 250 400 200 L400 300 Q300 250 200 300 Q100 350 0 300 Z" fill="url(#waveGradient1)"/>
  <path d="M0 250 Q100 200 200 250 Q300 300 400 250 L400 350 Q300 300 200 350 Q100 400 0 350 Z" fill="url(#waveGradient2)"/>
</svg>
