<?xml version="1.0" encoding="utf-8"?>

<!DOCTYPE svg PUBLIC "-//W3C//DTD SVG 1.1//EN" "http://www.w3.org/Graphics/SVG/1.1/DTD/svg11.dtd">
<svg version="1.1" id="Layer_1" xmlns="http://www.w3.org/2000/svg" xmlns:xlink="http://www.w3.org/1999/xlink" x="0px" y="0px"
	 viewBox="0 0 1202 1683.649" enable-background="new 0 0 1202 1683.649" xml:space="preserve">
<g id="NatanTeam_Heart_Fixed">
	<g id="NatanTeam_Heart">
	</g>
	<g>
		<path fill="#39B54A" d="M1093.799,613.114c53.578-34.268,78.558-85.215,78.34-136.092c-0.225-52.492-27.274-104.908-77.413-138.85
			c-54.752-37.065-120.853-37.863-181.443-0.611c-46.689,28.705-91.516,73.189-135.267,125.562
			C721.848,530.36,664.313,585.346,601,612.284c63.222,27.151,120.572,82.331,176.514,149.758
			c43.574,52.52,88.25,97.155,134.842,126.017c60.464,37.456,126.567,36.881,181.444,0
			C1192.759,821.551,1202.42,683.105,1093.799,613.114z"/>
		<path fill="#39B54A" d="M423.983,762.807C480.152,695.57,537.687,640.584,601,613.646
			c-63.222-27.151-120.572-82.331-176.514-149.758c-43.574-52.52-88.25-97.155-134.842-126.017
			c-60.465-37.456-126.567-36.881-181.444,0c-98.96,66.507-108.621,204.953,0,274.944c-53.578,34.268-78.558,85.215-78.34,136.092
			c0.225,52.492,27.274,104.908,77.413,138.85c54.752,37.065,120.852,37.863,181.443,0.611
			C335.406,859.664,380.232,815.18,423.983,762.807z"/>
		<path fill="#39B54A" d="M451.158,435.948c67.237,56.169,122.224,113.703,149.161,177.017
			c27.15-63.222,82.331-120.572,149.757-176.514c52.52-43.574,97.155-88.25,126.017-134.841c37.456-60.465,36.88-126.567,0-181.444
			c-66.507-98.96-204.953-108.621-274.944,0c-34.268-53.578-85.215-78.558-136.091-78.34
			C412.566,42.051,360.15,69.1,326.207,119.239c-37.066,54.752-37.863,120.852-0.611,181.443
			C354.301,347.371,398.785,392.197,451.158,435.948z"/>
		<path fill="#39B54A" d="M700.21,1179.767c12.09,2.951,24.412,4.39,36.732,4.337c52.492-0.225,104.908-27.274,138.851-77.413
			c37.065-54.752,37.863-120.852,0.611-181.443c-28.704-46.689-73.189-91.515-125.562-135.267
			c-67.237-56.169-122.224-113.703-149.161-177.017c-27.151,63.222-82.331,120.572-149.758,176.514
			c-52.52,43.574-97.155,88.25-126.017,134.841c-37.455,60.465-36.88,126.567,0,181.444c66.507,98.96,204.954,108.621,274.944,0
			c3.998,6.251,8.231,12.096,12.656,17.573c57.1,163.78,188.08,312.119,439.342,518.487l67.2-90.712
			C907.908,1408.634,777.661,1297.741,700.21,1179.767z"/>
	</g>
</g>
</svg>
