<?xml version="1.0" encoding="UTF-8" standalone="no"?>
<!-- Created with Inkscape (http://www.inkscape.org/) -->

<svg
   xmlns:dc="http://purl.org/dc/elements/1.1/"
   xmlns:cc="http://creativecommons.org/ns#"
   xmlns:rdf="http://www.w3.org/1999/02/22-rdf-syntax-ns#"
   xmlns:svg="http://www.w3.org/2000/svg"
   xmlns="http://www.w3.org/2000/svg"
   xmlns:sodipodi="http://sodipodi.sourceforge.net/DTD/sodipodi-0.dtd"
   xmlns:inkscape="http://www.inkscape.org/namespaces/inkscape"
   version="1.1"
   id="svg3821"
   xml:space="preserve"
   width="880"
   height="880"
   viewBox="0 0 880 880"
   sodipodi:docname="heart-shapes-svg.svg"
   inkscape:version="0.92.4 (5da689c313, 2019-01-14)"><metadata
     id="metadata3827"><rdf:RDF><cc:Work
         rdf:about=""><dc:format>image/svg+xml</dc:format><dc:type
           rdf:resource="http://purl.org/dc/dcmitype/StillImage" /><dc:title></dc:title></cc:Work></rdf:RDF></metadata><defs
     id="defs3825"><clipPath
       clipPathUnits="userSpaceOnUse"
       id="clipPath3837"><path
         d="M 0,660 H 660 V 0 H 0 Z"
         id="path3835"
         inkscape:connector-curvature="0" /></clipPath></defs><sodipodi:namedview
     pagecolor="#ffffff"
     bordercolor="#666666"
     borderopacity="1"
     objecttolerance="10"
     gridtolerance="10"
     guidetolerance="10"
     inkscape:pageopacity="0"
     inkscape:pageshadow="2"
     inkscape:window-width="1920"
     inkscape:window-height="1018"
     id="namedview3823"
     showgrid="false"
     inkscape:zoom="0.60394261"
     inkscape:cx="532.01034"
     inkscape:cy="484.59863"
     inkscape:window-x="-8"
     inkscape:window-y="-8"
     inkscape:window-maximized="1"
     inkscape:current-layer="g3829" /><g
     id="g3829"
     inkscape:groupmode="layer"
     inkscape:label="hearts-scribble-publicdomainvectors.org"
     transform="matrix(1.3333333,0,0,-1.3333333,0,880)"><g
       id="g3831"><g
         id="g3833"
         clip-path="url(#clipPath3837)"><path
           d="m 443.744,335.735 c -0.049,-0.134 7.582,-2.76 7.582,-2.76 -0.076,-0.212 -26.564,6.994 -26.564,6.994 -0.297,-0.818 41.238,-8.502 39.146,-14.248 -0.246,-0.672 -44.816,21.342 -47.416,14.2 0,0 61.162,-14.602 58.701,-21.365 -0.798,-2.193 -59.324,27.401 -62.177,19.565 -3.694,-10.146 70.638,-17.037 67.851,-24.696 -2.373,-6.523 -76.631,25.525 -77.056,24.356 -2.153,-5.911 80.992,-29.478 80.992,-29.478 -0.809,-2.223 -83.041,43.219 -88.121,29.264 -3.912,-10.755 95.879,-23.668 92.269,-33.582 -5.504,-15.126 -90.957,41.536 -94.566,31.622 -2.994,-8.227 99.035,-26.857 96.082,-34.97 0,0 -98.922,35.975 -99.815,33.525 -5.191,-14.266 108.399,-25.049 103.77,-37.768 -5.518,-15.154 -98.178,48.801 -103.248,34.87 -5.151,-14.153 107.355,-39.074 107.355,-39.074 -6.254,-17.182 -112.73,49.786 -116.508,39.404 -0.283,-0.777 120.618,-37.931 118.7,-43.202 -2.432,-6.683 -118.221,40.338 -118.221,40.338 -2.209,-6.069 119.832,-29.774 115.385,-41.995 0,0 -112.446,56.837 -118.692,39.676 -7.711,-21.185 270.043,-90.07 267.401,-97.327 -14.764,-40.563 -271.836,95.661 -271.836,95.661 -10.244,-28.145 282.388,-64.797 270.18,-98.336 -4.856,-13.344 -265.18,120.291 -273.95,96.198 0,0 290.41,-59.877 275.682,-100.338 -3.936,-10.82 -254.6,145.465 -272.602,96.002 -0.931,-2.56 280.395,-79.007 272.987,-99.36 0,0 -274.787,108.261 -278.426,98.261 -17.69,-48.602 283.41,-77.081 275.031,-100.104 0,0 -266.289,127.358 -277.023,97.863 0,0 290.867,-55.719 274.752,-100.001 -4.065,-11.162 -262.838,136.354 -276.826,97.923 -14.413,-39.596 290.001,-55.976 274.068,-99.751 0,0 -258.188,147.636 -276.432,97.507 -12.125,-33.312 279.61,-92.822 276.733,-100.722 -11.526,-31.668 -263.44,139.282 -278.268,98.547 -12.539,-34.455 287.961,-65.743 275.404,-100.241 -15.611,-42.891 -265.097,129.443 -276.863,97.12 L 636.443,204.408 c -15.793,-43.387 -266.064,140.987 -281.216,99.361 -5.557,-15.267 289.371,-85.01 282.841,-102.946 -0.847,-2.325 -281.748,99.684 -281.748,99.684 -5.67,-15.578 290.705,-62 276.625,-100.684 -4.683,-12.868 -277.312,97.844 -277.312,97.844 C 347.521,275.382 638.914,209.799 634.018,196.345 616.217,147.436 354.533,295.2 354.533,295.2 352.904,290.723 627.711,195.771 627.711,195.771 613.701,157.283 352.793,293.139 352.793,293.139 335.66,246.066 629.939,203.516 626.324,193.582 618.904,173.194 349.736,291.464 349.736,291.464 334.084,248.46 643.781,235.883 627.248,190.459 615.533,158.271 348.99,289.03 348.99,289.03 343.268,273.306 629.225,200.048 625.043,188.555 613.971,158.139 364.664,331.374 348.268,286.324 c -16.866,-46.339 276.365,-96.8 275.148,-100.146 -7.08,-19.449 -273.191,96.446 -273.191,96.446 -11.842,-32.533 268.32,-97.661 268.32,-97.661 -9.518,-26.15 -263.188,106.106 -267.438,94.428 -17.916,-49.226 274.44,-76.928 267.061,-97.203 -14.5,-39.838 -269.332,95.235 -269.332,95.235 -14.422,-39.625 276.424,-81.482 270.275,-98.372 -6.218,-17.087 -258.388,133.23 -271.933,96.019 -15.842,-43.53 265.736,-96.719 265.736,-96.719 -7.541,-20.716 -265.838,93.918 -265.838,93.918 -0.199,-0.548 281.129,-57.265 266.649,-97.052 -7.418,-20.379 -269.012,96.385 -269.5,95.044 -2.573,-7.067 273.873,-76.54 266.435,-96.975 -9.058,-24.892 -259.863,113.864 -266.943,94.411 -0.811,-2.223 274.996,-70.679 265.545,-96.649 -8.192,-22.5 -248.545,135.596 -264.069,92.942 -1.773,-4.876 269.014,-60.283 256.92,-93.511 -17.201,-47.262 -253.986,105.267 -259.285,90.705 -5.144,-14.138 259.633,-94.498 259.633,-94.498 -8.152,-22.397 -247.002,125.937 -259.432,91.785 -11.058,-30.38 256.657,-93.416 256.657,-93.416 l -252.143,88.614 c -4.98,-13.686 248.187,-90.333 248.187,-90.333 -11.738,-32.252 -248.044,90.583 -249.205,87.388 -4.648,-12.77 247.555,-82.728 245.184,-89.242 -4.793,-13.169 -241.361,87.877 -242.518,84.703 -1.05,-2.889 255.073,-49.824 241.248,-87.807 -5.619,-15.437 -245.25,86.263 -245.25,86.263 -13.98,-38.41 248.735,-60.579 239.11,-87.028 -12.449,-34.201 -234.514,97.356 -239.457,83.771 -13.96,-38.353 255.103,-45.354 239.84,-87.294 -4.459,-12.25 -224.795,115.219 -236.44,83.224 -4.623,-12.699 229.887,-83.672 229.887,-83.672 -15.305,-42.047 -228.174,90.236 -231.652,80.673 -11.846,-32.544 230.236,-83.798 230.236,-83.798 -3.15,-8.661 -212.734,118.826 -226.912,79.875 -13.067,-35.907 227.156,-82.023 226.945,-82.602 0,0 -207.851,117.201 -222.365,77.327 -13.209,-36.29 215.494,-78.432 215.494,-78.432 -7.355,-20.21 -215.34,75.341 -215.34,75.341 -0.435,-1.195 225.168,-49.166 214.629,-78.119 -9.953,-27.346 -215.053,75.613 -215.053,75.613 -9.398,-25.826 210.703,-76.691 210.703,-76.691 0,0 -205.117,91.086 -211.47,73.63 -7.438,-20.438 215.865,-51.165 207.056,-75.363 0,0 -195.699,97.594 -205.103,71.757 -2.244,-6.164 210.838,-48.253 201.682,-73.408 -5.145,-14.135 -199.057,69.17 -199.057,69.17 -5.859,-16.096 200.699,-62.029 197.158,-71.759 -2.125,-5.838 -189.713,82.438 -195.201,67.359 -3.561,-9.777 194.693,-57.453 190.385,-69.294 -10.973,-30.148 -182.502,70.965 -184.846,64.525 -5.324,-14.628 178.018,-64.792 178.018,-64.792 -6.893,-18.932 -165.846,91.964 -177.041,61.208 -4.616,-12.683 176.902,-45.591 170.861,-62.187 -1.666,-4.578 -164.625,67.053 -167.852,58.183 -0.492,-1.346 173.469,-41.316 166.457,-60.586 l -162.625,55.983 c -1.861,-5.111 165.69,-29.002 155.629,-56.645 -2.756,-7.576 -144.422,52.171 -145.351,49.616 -8.094,-22.235 150.554,-35.268 144.277,-52.513 -2.299,-6.316 -130.664,69.79 -138.834,47.347 -8.228,-22.606 139.391,-29.102 132.438,-48.205 -3.108,-8.538 -129.911,46.806 -130.846,44.233 -7.973,-21.906 129.029,-42.463 127.584,-46.437 -4.393,-12.069 -112.838,57.121 -119.006,40.171 -1.109,-3.047 117.162,-42.644 117.162,-42.644 0,0 -105.082,43.811 -107.898,36.073 -4.422,-12.152 103.91,-31.208 101.785,-37.048 -1.375,-3.776 -81.719,40.599 -86.336,27.909 -2.779,-7.633 86.017,-15.118 80.812,-29.413 -0.65,-1.79 -41.759,15.337 -42.933,12.112 -1.893,-5.199 24.539,-7.177 23.976,-8.727"
           style="fill:none;stroke:#da177a;stroke-width:0.5;stroke-linecap:round;stroke-linejoin:round;stroke-miterlimit:4;stroke-dasharray:none;stroke-opacity:1"
           id="path3839"
           inkscape:connector-curvature="0" /><path
           d="m 602.205,335.771 c -0.144,-0.398 3.233,-1.177 3.233,-1.177 -0.782,-2.151 -22.885,4.778 -22.885,4.778 -1.356,-3.729 37,-13.468 37,-13.468 l -42.139,12.358 c -0.35,-0.961 49.16,-15.517 48.399,-17.616 l -54.381,16.949 c -1.159,-3.182 59.9,-21.802 59.9,-21.802 -1.607,-4.416 -66.305,24.014 -67.205,21.542 -1.291,-3.549 67.553,-24.586 67.553,-24.586 -0.151,-0.411 -71.969,37.476 -76.672,24.554 -3.375,-9.274 84.23,-24.867 82.369,-29.98 0,0 -79.756,40.788 -84.377,28.091 -0.607,-1.669 93.592,-15.975 87.777,-31.949 -1.332,-3.657 -89.129,41.356 -93.172,30.252 -0.425,-1.172 98.93,-26.64 95.918,-34.911 -3.271,-8.99 -96.603,48.654 -102.091,33.574 -5.686,-15.62 105.035,-30.168 102.443,-37.285 -7.256,-19.934 -99.885,52.682 -106.279,35.109 -0.198,-0.542 113.468,-31.244 110.236,-40.123 0,0 -102.004,52.418 -107.801,36.495 0,0 108.699,-34.652 107.121,-38.988 -2.414,-6.627 -108.17,46.201 -111.513,37.014 0,0 119.843,-22.797 113.152,-41.184 l -120.227,40.924 c -4.015,-11.034 123.352,-44.897 123.352,-44.897 0,0 -122.353,54.646 -126.488,43.287 -7.69,-21.132 125.84,-45.801 125.84,-45.801 -3.407,-9.365 -119.497,66.63 -127.969,43.352 -6.447,-17.718 128.469,-41.004 126.619,-46.086 0,0 -124.816,52.755 -128.355,43.035 -1.487,-4.081 130.548,-47.514 130.548,-47.514 l -132.75,44.717 c -5.531,-15.199 135.563,-46.313 134.59,-48.987 -5.525,-15.178 -131.248,63.537 -137.461,46.461 -6.256,-17.185 145.739,-35.474 140.09,-50.989 -3.601,-9.899 -144.785,49.33 -144.785,49.33 0,0 144.83,-43.211 141.777,-51.601 0,0 -134.314,61.164 -139.138,47.907 L 654.66,255.518 c -6.484,-17.82 -143.998,55.678 -145.955,50.307 0,0 153.473,-25.701 143.779,-52.331 0,0 -134.892,66.998 -141.824,47.954 -3.599,-9.888 146.596,-45.928 144.207,-52.486 l -145.269,49.905 c -3.153,-8.661 144.933,-52.75 144.933,-52.75 -8.093,-22.236 -140.703,65.273 -146.316,49.849 -0.344,-0.945 144.693,-52.663 144.693,-52.663 -1.547,-4.247 -145.193,60.563 -148.767,50.745 -5.512,-15.142 152.056,-44.303 148.507,-54.052 -1.802,-4.953 -142.847,76.644 -151.742,52.2 0,0 159.723,-37.645 153.139,-55.738 -7.777,-21.364 -151.129,55.909 -152.586,51.911 -8.732,-23.994 159.523,-34.216 151.859,-55.272 -5.013,-13.775 -150.017,62.128 -153.41,52.806 -1.357,-3.728 155.086,-34.693 148.094,-53.902"
           style="fill:none;stroke:#da177a;stroke-width:0.5;stroke-linecap:round;stroke-linejoin:round;stroke-miterlimit:4;stroke-dasharray:none;stroke-opacity:1"
           id="path3841"
           inkscape:connector-curvature="0" /><path
           d="m 108.607,339.152 c -0.18,-0.497 16.632,-5.493 16.452,-5.988 -0.455,-1.252 -43.193,9.14 -43.648,7.889 -0.743,-2.037 68.866,-22.758 68.124,-24.795 -0.844,-2.318 -78.69,23.068 -79.534,20.752 -1.014,-2.788 88.864,-29.188 87.85,-31.975 -1.077,-2.961 -99.486,33.049 -100.564,30.089 -1.169,-3.213 108.155,-35.727 106.987,-38.939 C 163.103,292.969 57.562,336.526 56.392,333.31 55.18,329.982 167.072,296.795 165.861,293.466 164.65,290.141 54.948,333.459 53.738,330.133 52.456,326.611 171.254,291.349 169.972,287.828 168.705,284.347 54.797,332.402 53.531,328.919 50.601,320.873 319.026,241.4 316.097,233.354 313.146,225.248 46.351,332.525 43.4,324.42 40.423,316.24 318.166,233.678 315.188,225.499 312.231,217.372 46.839,330.974 43.881,322.848 40.898,314.652 316.062,233.063 313.079,224.867 310.118,216.732 43.002,326.395 40.042,318.26 37.037,310.007 317.807,226.507 314.803,218.254 311.738,209.835 34.796,321.85 31.732,313.431 28.711,305.13 315.534,219.536 312.512,211.236 309.472,202.883 36.693,319.776 33.653,311.423 30.629,303.116 315.295,218.319 312.271,210.013 309.222,201.636 34.591,315.854 31.542,307.479 28.515,299.162 310.792,215.257 307.764,206.94 304.748,198.652 32.468,309.951 29.451,301.664 26.426,293.352 305.755,210.511 302.73,202.199 299.687,193.839 26.88,311.35 23.837,302.99 20.813,294.68 304.284,210.327 301.259,202.017 298.273,193.811 29.589,306.66 26.603,298.454 23.583,290.158 303.027,207.24 300.007,198.943 297.01,190.71 28.049,305.661 25.053,297.427 22.035,289.14 304.295,205.178 301.278,196.889 298.266,188.611 25.932,298.522 22.919,290.246 c -2.995,-8.229 273.605,-90.262 270.609,-98.494 -2.969,-8.155 -269.933,104.23 -272.901,96.075 -2.983,-8.196 276.606,-91.395 273.623,-99.592 -2.973,-8.17 -270.658,103.733 -273.632,95.562 -2.966,-8.148 272.308,-89.884 269.342,-98.033 -2.98,-8.19 -271.092,104.592 -274.074,96.402 -2.948,-8.101 274.472,-90.728 271.524,-98.827 -2.921,-8.023 -266.675,99.28 -269.595,91.257 -2.906,-7.986 266.48,-87.95 263.574,-95.933 -2.878,-7.908 -261.096,102.789 -263.974,94.882 -2.899,-7.964 270.476,-89.429 267.578,-97.391 -2.933,-8.058 -267.278,101.296 -270.211,93.238 -2.86,-7.857 264.616,-87.414 261.756,-95.271 -2.867,-7.88 -260.304,101.96 -263.171,94.082 -2.846,-7.819 263.349,-86.998 260.503,-94.815 -2.829,-7.773 -257.041,99.811 -259.87,92.041 -2.823,-7.758 263.792,-87.229 260.969,-94.986 -2.81,-7.72 -255.874,97.596 -258.684,89.877 -2.784,-7.646 256.231,-84.601 253.448,-92.249 -2.735,-7.515 -250.328,91.371 -253.064,83.857 -2.694,-7.406 247.769,-81.795 245.074,-89.199 -2.703,-7.428 -245.603,95.575 -248.307,88.147 -2.668,-7.33 247.514,-81.785 244.846,-89.117 -2.636,-7.243 -239.077,94.372 -241.713,87.129 -2.659,-7.303 247.645,-81.866 244.987,-89.168 -2.641,-7.257 -241.342,89.254 -243.982,81.997 -2.57,-7.061 238.085,-78.659 235.515,-85.72 -2.573,-7.072 -234.313,89.536 -236.887,82.464 -2.517,-6.914 234.737,-77.605 232.218,-84.521 -2.506,-6.887 -227.6,89.104 -230.107,82.215 -2.494,-6.851 230.427,-76.109 227.933,-82.961 -2.499,-6.868 -227.08,88.49 -229.58,81.62 -2.465,-6.773 232.693,-77.024 230.229,-83.794 -2.508,-6.891 -227.356,89.799 -229.864,82.911 -2.453,-6.741 230.276,-76.18 227.823,-82.92 -2.481,-6.817 -225.027,88.521 -227.506,81.707 -2.437,-6.694 231.238,-76.584 228.803,-83.278 -2.382,-6.543 -217.951,79.454 -220.333,72.91 -2.313,-6.354 213.477,-70.502 211.164,-76.857 -2.275,-6.25 -208.117,76.28 -210.392,70.028 -2.19,-6.016 203.012,-67.077 200.823,-73.092 -2.132,-5.857 -195.459,69.857 -197.59,64.003 -2.022,-5.554 191.19,-63.298 189.169,-68.852 -1.992,-5.47 -181.15,69.649 -183.141,64.178 -1.963,-5.395 178.675,-58.924 176.712,-64.319 -1.906,-5.232 -173.951,64.713 -175.856,59.479 -1.85,-5.082 173.244,-57.3 171.395,-62.382 -1.779,-4.888 -161.765,62.447 -163.544,57.559 -1.797,-4.938 161.351,-53.136 159.554,-58.074 -1.677,-4.605 -153.839,54.817 -155.516,50.208 -1.607,-4.416 152.216,-50.4 150.608,-54.816 -1.628,-4.473 -147.579,58.517 -149.206,54.042 -1.599,-4.393 147.967,-48.881 146.369,-53.274 -1.532,-4.205 -139.438,53.019 -140.969,48.815 -1.514,-4.162 140.8,-46.533 139.285,-50.696 -1.35,-3.706 -124.083,43.009 -125.432,39.303 -1.267,-3.48 117.215,-38.72 115.949,-42.202 -1.069,-2.937 -98.369,34.126 -99.439,31.189 -1.011,-2.778 95.351,-31.559 94.34,-34.337 -0.717,-1.97 -66.424,21.285 -67.141,19.314 -0.595,-1.632 54.887,-18.125 54.291,-19.758 -0.437,-1.205 -39.937,15.146 -40.375,13.941 -0.403,-1.11 36.379,-11.983 35.976,-13.094"
           style="fill:none;stroke:#da177a;stroke-width:3;stroke-linecap:round;stroke-linejoin:round;stroke-miterlimit:4;stroke-dasharray:none;stroke-opacity:1"
           id="path3843"
           inkscape:connector-curvature="0" /><path
           d="m 268.193,338.778 c -0.165,-0.453 15.421,-5.098 15.256,-5.552 -0.384,-1.051 -36.219,8.225 -36.601,7.173 -0.572,-1.571 51.593,-16.999 51.021,-18.57 -0.71,-1.949 -66.39,18.786 -67.1,16.836 -0.835,-2.292 78.837,-26.1 78.004,-28.391 -0.932,-2.561 -85.882,29.367 -86.815,26.805 -0.959,-2.639 87.678,-28.926 86.718,-31.562 -0.983,-2.701 -90.436,31.158 -91.419,28.46 -1.067,-2.935 100.367,-33.209 99.3,-36.143 -1.156,-3.178 -107.192,34.231 -108.349,31.054 -1.221,-3.354 111.242,-36.691 110.021,-40.044 -1.254,-3.444 -116.058,37.534 -117.311,34.09 -1.344,-3.694 120.641,-39.727 119.298,-43.42 -1.377,-3.785 -126.603,44.186 -127.98,40.403 -1.416,-3.89 130.882,-43.232 129.467,-47.122 -1.43,-3.926 -131.899,44.224 -133.329,40.299 -1.491,-4.098 136.113,-44.903 134.623,-49 -1.473,-4.045 -133.921,51.57 -135.393,47.525 -1.505,-4.136 136.524,-45.008 135.019,-49.143 -1.518,-4.172 -140.005,47.418 -141.524,43.245 -1.562,-4.288 146.253,-48.372 144.693,-52.663 -1.565,-4.296 -142.2,54.939 -143.764,50.642 -1.571,-4.316 139.92,-46.038 138.348,-50.355 -1.537,-4.227 -139.735,54.394 -141.273,50.167 -1.579,-4.336 143.427,-47.292 141.847,-51.628 -1.533,-4.212 -139.08,54.747 -140.614,50.535 -1.582,-4.344 142.375,-46.898 140.793,-51.245 -1.581,-4.341 -143.426,56.341 -145.006,51.997 -1.586,-4.356 147.978,-48.925 146.392,-53.281 -1.589,-4.366 -146.39,49.973 -147.978,45.607 -1.619,-4.446 146.692,-48.356 145.075,-52.804 -1.597,-4.385 -146.6,51.81 -148.197,47.424 -1.633,-4.489 153.029,-50.617 151.396,-55.103 -1.644,-4.519 -149.703,57.258 -151.347,52.741 -1.636,-4.495 147.446,-48.576 145.809,-53.07"
           style="fill:none;stroke:#da177a;stroke-width:3;stroke-linecap:round;stroke-linejoin:round;stroke-miterlimit:4;stroke-dasharray:none;stroke-opacity:1"
           id="path3845"
           inkscape:connector-curvature="0" /><path
           d="m 182.414,565.672 c 0.156,-0.155 14.079,14.391 14.235,14.235 0.299,-0.299 -26.704,-32.653 -26.404,-32.951 0.435,-0.436 43.313,44.187 43.749,43.75"
           style="fill:none;stroke:#da177a;stroke-width:1;stroke-linecap:round;stroke-linejoin:round;stroke-miterlimit:4;stroke-dasharray:none;stroke-opacity:1"
           id="path3847"
           inkscape:connector-curvature="0" /><path
           d="m 35.452,572.328 c 0.137,-0.138 14.154,14.429 14.292,14.292 0.287,-0.287 -25.508,-31.503 -25.221,-31.79 0.402,-0.402 39.425,40.227 39.826,39.826 0.47,-0.472 -44.261,-49.717 -43.789,-50.187 0.536,-0.536 52.299,53.372 52.836,52.836 0.591,-0.593 -56.548,-61.754 -55.957,-62.346 0.635,-0.634 63.072,64.34 63.707,63.707 0.68,-0.681 -65.267,-70.547 -64.586,-71.228 0.718,-0.719 71.267,72.703 71.984,71.985 0.765,-0.765 -73.926,-78.873 -73.162,-79.638 0.788,-0.786 77.756,79.33 78.543,78.543 0.806,-0.807 -78.127,-82.962 -77.321,-83.767 0.846,-0.846 83.749,85.439 84.594,84.593 0.878,-0.877 -85.298,-89.917 -84.42,-90.794 0.894,-0.895 88.43,90.22 89.324,89.326 0.926,-0.927 -90.136,-94.901 -89.21,-95.827 0.941,-0.94 92.359,94.239 93.299,93.299 0.957,-0.956 -93.306,-97.979 -92.349,-98.935 0.978,-0.979 96.457,98.415 97.436,97.436 0.994,-0.995 -97.18,-101.525 -96.186,-102.518 1.011,-1.012 99.852,101.875 100.864,100.863 C 120.983,590.977 19.409,487.083 20.437,486.056 21.478,485.015 123.88,591.58 124.92,590.54 125.971,589.49 22.134,483.509 23.184,482.458 24.25,481.392 127.6,589.007 128.666,587.94 129.737,586.87 23.778,478.586 24.849,477.515 25.937,476.427 133.099,587.94 134.188,586.853 135.295,585.746 25.61,474.044 26.717,472.938 27.823,471.831 136.583,585.015 137.688,583.908 138.809,582.788 27.759,469.847 28.88,468.728 30.001,467.605 140.995,583.085 142.117,581.964 143.246,580.835 31.348,467 32.477,465.871 33.611,464.737 143.178,578.839 144.312,577.706 145.443,576.573 33.294,462.417 34.426,461.284 35.569,460.143 146.711,575.852 147.853,574.71 148.993,573.569 35.938,458.549 37.079,457.409 38.226,456.26 149.728,572.354 150.876,571.206 152.017,570.065 38.873,455.139 40.014,453.998 41.165,452.847 154.404,570.69 155.556,569.54 156.725,568.371 40.715,450.665 41.885,449.495 43.036,448.344 157.241,567.155 158.392,566.003 159.562,564.833 43.486,447.025 44.655,445.855 45.807,444.706 159.306,562.808 160.457,561.657 161.614,560.5 46.857,443.952 48.014,442.795 49.161,441.649 161.624,558.697 162.77,557.551 163.914,556.407 50.51,441.238 51.653,440.095 52.792,438.957 165,555.72 166.139,554.581 167.274,553.446 54.725,439.028 55.86,437.893 56.988,436.764 167.17,551.46 168.299,550.332 169.44,549.19 56.498,434.156 57.638,433.015 59.218,431.436 215.32,593.857 216.899,592.277 218.474,590.704 61.2,433.311 62.773,431.737 64.419,430.091 225.402,597.657 227.048,596.012 228.689,594.37 64.483,430.286 66.125,428.645 67.819,426.95 233.743,599.649 235.437,597.955 237.127,596.265 67.968,427.435 69.658,425.746 71.391,424.013 240.941,600.494 242.674,598.762 244.41,597.026 70.625,423.825 72.36,422.09 74.123,420.328 248.208,601.463 249.971,599.701 251.739,597.933 74.709,421.45 76.478,419.682 78.264,417.895 253.119,599.899 254.907,598.112 256.69,596.328 77.911,418.351 79.695,416.567 81.501,414.761 258.719,599.204 260.525,597.396 262.311,595.611 83.539,417.325 85.324,415.54 c 1.822,-1.822 179.794,183.437 181.614,181.616 1.81,-1.81 -179.444,-182.226 -177.635,-184.035 1.832,-1.832 181.46,185.124 183.293,183.293 1.84,-1.841 -182.65,-185.356 -180.81,-187.197 1.839,-1.839 182.635,186.313 184.475,184.474 1.821,-1.821 -180.557,-183.526 -178.737,-185.347 1.842,-1.841 181.425,185.109 183.267,183.267 1.831,-1.832 -181.685,-184.663 -179.853,-186.496 1.84,-1.84 182.036,185.718 183.877,183.877 1.824,-1.824 -181.032,-183.682 -179.209,-185.507 1.838,-1.836 181.623,185.298 183.46,183.46 1.823,-1.822 -180.797,-183.754 -178.974,-185.577 1.829,-1.829 180.814,184.473 182.644,182.644 1.822,-1.823 -180.803,-183.601 -178.98,-185.424 1.82,-1.819 181.154,184.796 182.974,182.975 1.824,-1.823 -180.879,-183.734 -179.055,-185.557 1.807,-1.807 180.758,184.373 182.566,182.565 1.811,-1.812 -179.684,-182.549 -177.872,-184.361 1.793,-1.793 178.501,182.087 180.294,180.295 1.777,-1.779 -176.289,-179.312 -174.51,-181.09 1.775,-1.777 175.129,178.681 176.906,176.905 1.753,-1.752 -173.817,-176.75 -172.064,-178.503 1.757,-1.757 173.155,176.669 174.911,174.912 1.752,-1.75 -173.54,-176.455 -171.789,-178.205 1.737,-1.736 173.619,177.092 175.355,175.355 1.734,-1.733 -171.89,-174.789 -170.156,-176.524 1.714,-1.714 170.411,173.841 172.125,172.127 1.699,-1.699 -168.333,-171.258 -166.635,-172.956 1.69,-1.69 166.755,170.132 168.444,168.442 1.683,-1.683 -166.836,-169.8 -165.153,-171.483 1.662,-1.663 166.187,169.511 167.85,167.849 1.654,-1.655 -163.866,-167.206 -162.211,-168.861 1.632,-1.631 161.744,165.006 163.376,163.375 1.607,-1.608 -159.141,-162.41 -157.532,-164.017 1.596,-1.598 156.66,159.858 158.259,158.26 1.581,-1.58 -156.366,-159.714 -154.785,-161.295 1.561,-1.561 154.363,157.488 155.925,155.926 1.518,-1.517 -149.988,-153.404 -148.471,-154.922 1.513,-1.512 149.2,152.227 150.714,150.715 1.458,-1.46 -144.115,-147.575 -142.655,-149.034 1.427,-1.427 141.768,144.624 143.195,143.197 1.366,-1.365 -134.628,-138.275 -133.264,-139.639 1.335,-1.334 131.066,133.736 132.402,132.401 1.25,-1.25 -123.018,-127.062 -121.768,-128.313 1.23,-1.23 121.136,123.595 122.366,122.365 1.161,-1.162 -114.007,-118.298 -112.845,-119.46 1.111,-1.111 111.014,113.236 112.123,112.125 1.025,-1.025 -100.29,-104.648 -99.265,-105.673 0.982,-0.983 95.728,97.691 96.709,96.708 0.875,-0.875 -85.212,-89.81 -84.337,-90.686 0.834,-0.834 80.975,82.64 81.808,81.807 0.725,-0.725 -69.921,-74.822 -69.196,-75.546 0.649,-0.65 65.389,66.688 66.039,66.039 0.501,-0.501 -47.15,-52.79 -46.65,-53.29 0.374,-0.373 36.914,37.659 37.286,37.286"
           style="fill:none;stroke:#da177a;stroke-width:1;stroke-linecap:round;stroke-linejoin:round;stroke-miterlimit:4;stroke-dasharray:none;stroke-opacity:1"
           id="path3849"
           inkscape:connector-curvature="0" /><path
           d="m 533.893,575.928 c 0.263,-0.456 8.787,5.816 9.109,5.259 0.391,-0.68 -19.945,-17.489 -19.506,-18.253 0.863,-1.496 42.26,26.51 43.174,24.925 0.875,-1.515 -52.154,-34.566 -51.217,-36.19 1.178,-2.038 58.574,36.415 59.699,34.467 1.268,-2.198 -70.162,-45.018 -69.023,-46.989 1.463,-2.534 80.531,50.581 82.301,47.516 1.425,-2.47 -82.696,-50.713 -81.174,-53.348 1.887,-3.268 88.992,55.468 90.762,52.402"
           style="fill:none;stroke:#da177a;stroke-width:1;stroke-linecap:round;stroke-linejoin:round;stroke-miterlimit:4;stroke-dasharray:none;stroke-opacity:1"
           id="path3851"
           inkscape:connector-curvature="0" /><path
           d="m 387.287,582.003 c 0.219,-0.378 1.797,1.651 2.063,1.191 0.4,-0.692 -17.905,-16.203 -17.487,-16.927 0.795,-1.377 37.914,23.914 38.789,22.395 0.735,-1.271 -45.082,-30.569 -44.205,-32.089 1.063,-1.839 54.85,34.48 56.069,32.369 1.062,-1.843 -63.868,-41.113 -62.678,-43.174 1.564,-2.71 68.521,42.518 69.803,40.3 1.17,-2.028 -69.016,-43.526 -67.702,-45.801 1.622,-2.811 73.877,46.472 75.532,43.608 1.338,-2.314 -78.817,-49.61 -77.627,-51.669 1.816,-3.15 82.004,50.635 83.427,48.168 1.444,-2.498 -85.259,-52.036 -83.636,-54.848 1.888,-3.272 91.197,56.362 92.803,53.581 1.656,-2.867 -98.125,-59.474 -96.317,-62.607 1.943,-3.366 94.955,59.127 96.82,55.899 1.95,-3.373 -97.828,-59.653 -96.214,-62.449 1.699,-2.939 100.337,62.486 102.31,59.07 1.693,-2.929 -104.351,-62.574 -102.531,-65.725 2.279,-3.949 110.482,68.18 112.385,64.886 2.107,-3.651 -107.58,-65.045 -105.909,-67.94 1.772,-3.068 106.887,66.171 108.817,62.826 1.857,-3.216 -112.518,-66.42 -110.303,-70.258 2.143,-3.708 112.301,69.805 114.453,66.079 2.131,-3.691 -112.992,-68.154 -111.328,-71.035 2.264,-3.924 111.037,69.207 113.244,65.381 1.785,-3.088 -111.781,-67.757 -110.135,-70.61 2.508,-4.346 114.307,71.405 116.649,67.347 1.971,-3.411 -116.533,-69.779 -114.625,-73.087 2.49,-4.309 114.195,70.989 116.385,67.196 2.115,-3.664 -119.506,-71.102 -117.532,-74.519 2.358,-4.086 118.78,74.282 121.248,70.003 1.999,-3.458 -116.978,-69.781 -115.052,-73.117 1.894,-3.282 112.051,69.803 114.265,65.97 2.02,-3.499 -112.632,-68.001 -110.966,-70.886 2.277,-3.944 110.468,68.04 112.314,64.844 1.713,-2.963 -109.436,-65.93 -107.713,-68.917 3.432,-5.942 209.387,129.439 213.088,123.027 3.283,-5.689 -214.307,-122.303 -210.889,-128.221 4.059,-7.032 216.438,132.937 219.893,126.955 3.9,-6.756 -216.621,-124.177 -213.131,-130.221 4.414,-7.642 217.168,134.677 221.191,127.704 3.541,-6.132 -221.544,-124.763 -217.173,-132.334 3.681,-6.376 213.22,132.646 217.353,125.488 4.336,-7.508 -218.816,-125.241 -215.26,-131.398 4.219,-7.308 221.418,136.023 224.963,129.883 3.465,-6 -225.617,-127.434 -221.3,-134.91 3.974,-6.886 218.505,136.665 223.056,128.783 3.731,-6.464 -219.994,-124.858 -216.181,-131.462 4.423,-7.662 214.3,132.331 218.027,125.878 3.531,-6.116 -216.051,-123.234 -212.408,-129.546 3.724,-6.451 211.363,130.126 214.869,124.055 3.89,-6.737 -214.871,-123.053 -211.457,-128.966 3.869,-6.704 213.646,133.294 217.953,125.835 3.859,-6.684 -213.719,-121.349 -209.865,-128.023 4.398,-7.618 207.929,129.987 212.232,122.534 3.26,-5.646 -211.426,-119.306 -207.445,-126.2 3.935,-6.814 203.965,125.566 207.345,119.709 3.188,-5.521 -206.757,-116.719 -202.793,-123.585 3.522,-6.098 200.35,124.653 204.239,117.917 3.279,-5.679 -199.762,-114.637 -196.457,-120.363 4.183,-7.246 197.603,121.301 200.726,115.89 3.856,-6.679 -198.224,-113.371 -194.834,-119.241 3.28,-5.68 186.082,116.691 190.09,109.749 3.365,-5.829 -186.459,-106.929 -183.07,-112.799 2.963,-5.132 181.008,112.819 184.607,106.582 3.33,-5.768 -179.933,-103.358 -176.906,-108.603 3.074,-5.324 175.289,109.738 178.982,103.337 3.334,-5.771 -175.904,-101.34 -172.849,-106.629 3.336,-5.78 168.658,104.506 171.746,99.158 2.84,-4.919 -163.604,-94.719 -160.684,-99.777 2.582,-4.475 154.018,96.668 157.371,90.858 2.692,-4.661 -157.453,-91.531 -154.66,-96.368 3.004,-5.204 146.682,90.159 149.049,86.055 2.412,-4.175 -144.107,-83.48 -141.361,-88.237 2.959,-5.124 133.023,82.529 135.504,78.232 2.215,-3.837 -127.18,-75.905 -125.207,-79.321 2.566,-4.444 117.623,73.868 120.201,69.4 2.232,-3.864 -112.434,-66.62 -110.365,-70.203 2.23,-3.864 98.052,61.643 100.232,57.869 1.018,-1.766 -65.338,-41.629 -64.135,-43.713 1.229,-2.125 46.819,29.501 47.889,27.649"
           style="fill:none;stroke:#da177a;stroke-width:1;stroke-linecap:round;stroke-linejoin:round;stroke-miterlimit:4;stroke-dasharray:none;stroke-opacity:1"
           id="path3853"
           inkscape:connector-curvature="0" /></g></g></g></svg>