<svg xmlns="http://www.w3.org/2000/svg" width="200" height="200" viewBox="0 0 200 200">
  <defs>
    <g id="flake" stroke="#FFFFFF" stroke-width="2" stroke-linecap="round">
      <line x1="0" y1="-6" x2="0" y2="6" />
      <line x1="-6" y1="0" x2="6" y2="0" />
      <line x1="-4.2" y1="-4.2" x2="4.2" y2="4.2" />
      <line x1="-4.2" y1="4.2" x2="4.2" y2="-4.2" />
    </g>
    <radialGradient id="glow" cx="50%" cy="50%" r="50%">
      <stop offset="0%" stop-color="#FFFFFF" stop-opacity="0.9" />
      <stop offset="60%" stop-color="#FFFFFF" stop-opacity="0.25" />
      <stop offset="100%" stop-color="#FFFFFF" stop-opacity="0" />
    </radialGradient>
  </defs>
  <rect width="200" height="200" fill="none" />
  <g opacity="0.55">
    <circle cx="20" cy="30" r="10" fill="url(#glow)" />
    <use href="#flake" transform="translate(20 30) scale(1)" />

    <circle cx="80" cy="60" r="8" fill="url(#glow)" />
    <use href="#flake" transform="translate(80 60) scale(0.8)" />

    <circle cx="140" cy="40" r="12" fill="url(#glow)" />
    <use href="#flake" transform="translate(140 40) scale(1.2)" />

    <circle cx="40" cy="120" r="9" fill="url(#glow)" />
    <use href="#flake" transform="translate(40 120) scale(0.9)" />

    <circle cx="120" cy="120" r="11" fill="url(#glow)" />
    <use href="#flake" transform="translate(120 120) scale(1.1)" />

    <circle cx="170" cy="90" r="7" fill="url(#glow)" />
    <use href="#flake" transform="translate(170 90) scale(0.7)" />

    <circle cx="100" cy="170" r="10" fill="url(#glow)" />
    <use href="#flake" transform="translate(100 170) scale(1)" />

    <circle cx="160" cy="160" r="8" fill="url(#glow)" />
    <use href="#flake" transform="translate(160 160) scale(0.8)" />

    <circle cx="60" cy="180" r="6" fill="url(#glow)" />
    <use href="#flake" transform="translate(60 180) scale(0.6)" />
  </g>
</svg>
