<?xml version="1.0" encoding="UTF-8" standalone="no"?>
<svg xmlns="http://www.w3.org/2000/svg" width="463" height="290" viewBox="0 0 41.185001 25.796249">
  <g transform="translate(-354.4075 -519.46406)">
    <path fill="#ecf3f3" fill-rule="evenodd" d="m391.0375 540.28426.11.205.12125.19.10875.17625.10875.17625.1225.1925.11.19.10875.16375.12125.17625.12125.175.12375.17875.12125.16125.1225.1775.1225.16375.12375.14875.1325.16125.13875.15.135.1625.1375.15125.14875.15.1475.13625.15.14875.15.14875.15125.1375.16125.13375.17875.1225.16375.13875.16125.12.18875.12375.19375.1225.1875.1075.19.1075.1925.11-.12125.02625-.125.0125-.12125.015-.1075.01375h-.2325l-.10875-.01375-.10875-.015-.09625-.0125-.0925-.01125-.09875-.0275-.10625-.02875-.095-.0275-.09375-.04125-.08375-.025-.095-.04125-.14875-.0825-.15-.08125-.16375-.095-.1625-.0925-.17625-.1125-.17875-.1075-.17625-.1075-.175-.11-.1775-.12125-.18875-.09625-.19-.10875-.19125-.11-.19125-.09375-.1925-.08-.20125-.0825-.205-.08375-.16125-.03875-.1775-.05375-.17625-.04125-.16375-.0275-.18875-.01375-.16375-.015h-.35375l-.17625.015-.17875.01375-.19.0125-.17625.03-.175.02625-.19125.03875-.1775.03-.19.05375-.20375.03875-.1925.05625-.1875.04125-.19.05375-.20625.03875-.18875.05625-.2175.05375-.20375.05375-.20375.06875-.20375.05375-.21625.04125-.22125.05375-.21625.05625-.215.03875-.23375.04125-.21625.05375-.35375.05625-.33875.06625-.3125.0825-.3125.06625-.28625.0825-.28625.06875-.26875.06625-.26125.05625-.24375.0675-.24625.04-.23125.02625-.2275.015h-.22125l-.2025-.0275-.20375-.03875-.20375-.06625-.11-.0725-.05375-.06625-.01375-.0825.02875-.08125.06625-.095.0975-.1075.10625-.0975.13625-.1075.125-.11.1475-.12125.1225-.11.1075-.12.095-.11.06875-.11.0275-.11875-.0125-.11-.04125-.09375-.06625-.085-.09875-.06625-.10625-.05625-.12375-.05375-.13625-.02625-.13625-.0275-.15-.02625-.1625-.015h-.3125l-.1625.015-.135.015-.15.01125-.12375.0275-.1075.02625-.17625.0425-.19125.05375-.1775.0675-.175.06875-.16375.0825-.17625.07875-.16375.0825-.17625.08375-.16375.0925-.17625.0975-.16375.0925-.1625.0975-.16375.1075-.1625.1075-.1625.08375-.16375.11125-.16125.09125-.165.11-.1625.0825-.16375.0925-.175.095-.16375.08125-.16375.0825-.1775.06625-.1625.05625-.19.06625-.16375.05875-.175.05125-.17875.04125-.1875.02625-.19125.0125-.19.015-.21875-.015-.2175-.03875-.20375-.08125-.19-.095-.2025-.1075-.19-.15125-.17875-.15125-.19125-.16125-.18875-.16375-.17875-.16375-.19-.14875-.18875-.16125-.19125-.13625-.20375-.125-.2025-.095-.21875-.08-.17625-.03875-.1625-.0425-.15-.01375-.14875-.015h-.1375l-.135.015-.12375.01375-.135.0125-.12125.015-.13625.02625-.13625.0275-.1375.02625-.14875.015-.16125.02625-.17625.0125h-.64l-.23125-.0125-.26-.02625-.2575-.0275-.25625-.02625-.25875-.02625-.2725-.0425-.25875-.02875-.27-.0125-.26-.02625-.25875-.015h-.2575l-.23.015-.23.02625-.2325.0275-.2175.05625-.2175.08-.20375.06875-.21875.08-.2175.08375-.22875.095-.20375.0925-.21875.11-.2325.095-.215.11-.22.0925-.23.0825-.20375.09625-.2175.095-.21625.08-.22.07125-.13625.02375-.1475.0425-.13625.02625-.15.0125-.135.02875h-.3l-.14875.0125h-.44875l-.14875-.0125h-.43625l-.14875-.01375-4.3775-25.32.095.04125.08125.03875.08125.04125.0825.0425.08.0575.08375.04.08.03875.0825.03875.08125.04125.08125.0425.08125.04125.0975.05125.0925.02875.0825.04125.09625.0275.0825.015.16125.02625.165.0125.1625.0125h.14875l.15-.0125h.16125l.16375-.0125.15-.015.14875-.01125h.32625l.165-.015.14875.015h.1625l.16375.01125.1625.04.1625.05875.165.03875.1625.05375.1475.05375.16375.0675.13625.05375.16375.07125.15.06625.14875.0675.13625.06625.165.07125.1325.08.14875.06875.15.06875.13625.0675.15.08125.1375.06625.14875.0675.14875.06875.1375.06875.15.0675.1475.06625.15.05875.15.06625.14875.05375.1625.05375.15.0675.1625.04125.15.05625.1625.04.16375.04125.1625.03875.1925.0275.22875.02875.23375.0125.24375.01625h.25875l.25625-.01625h.2725l.2725-.0275.27125-.01375.25875-.015.27125-.025.245-.04125.24625-.02625.21625-.0275.2175-.04125.17625-.0275.34125-.0675.2975-.06625.285-.06875.245-.0675.245-.05625.2025-.05375.20625-.06875.20125-.04125.19125-.03875.16375-.0425.19-.04125.19-.04125.20375-.03875.19125-.03.23125-.00875.23-.0275h.09625l.1225.0125.09375.02375.10875.03.09625.05375.10875.05625.09625.05375.09375.05375.09375.0675.1075.08125.0975.0675.095.05625.10875.06875.095.05375.09625.03875.10875.04125.09375.0275.095.015.095.02625h.11l.095.0275.08125.01125h.11125l.09125.015.0975.015.0925.0125.09625.01375.095.0125.09625.0125.095.015.09375.02875.09625.02875.10875.025.10875.03875.11.03.0925.04125.11.05375.09625.03875.10625.04125.09625.04375.10875.0375.09625.04125.1075.04125.095.0275.11.02625.12125.015.11.02625h.325l.205-.02625.2025-.0275.20625-.04125.21625-.04125.205-.05625.20125-.05125.205-.07125.2025-.05125.19125-.0675.2175-.05625.2175-.06625.205-.04375.2025-.03875.205-.0425.21625-.02625.15-.0125h.435l.15.0125.135.015.16375.01125.13625.03.14875.02625.13625.025.14875.02875.15.0275.15125.04125.135.03875.13375.04125.15.0425.10875.02625.11.03875.1075.03.11125.04125.12125.04125.10875.03875.1075.0425.11125.05375.1075.05375.09375.05625.09625.0675.095.05125.08125.08375.09625.0675.0675.08125.08375.095.1325.25875.11.25875.0675.2975.0675.28625.06875.3.0825.28625.10625.27.16375.25625.0825.11.08.1225.0975.11.095.1225.105.12125.09875.095.10875.11.1075.095.10875.09375.1225.0825.12375.0825.1225.09375.135.0675.1225.06875.1225.05625.135.05125.0675.02625.0825.03.09375.0125.0975.02625.09375.015.09625.0125.1225.01375h.59625l.09625-.01375.08125-.0125.0675-.015-.0675.66625-.12375.6675-.12125.67875-.1225.66625-.1225.66375-.135.67875-.1075.66875-.08125.66375.02375.19125.06875.23125.08125.2325.09625.25875.1225.215.135.205.15.16375.1625.11125.19125.105.1775.1075.19.11.20375.1225.17625.13625.17625.14875.19.1525.17875.14875.17625.175.1625.16125.16125.17875.16375.19.15.19125.13375.205.1525.1875.1225.2175.12125.2025.10875.22.1225.23125.10875.24625.09625.23.1075.24375.10875.2425.09625.26125.095.24375.08.25875.09625.24125.09625.2475.0925.24375.0825.23.095.23125.08125.2325v-.015z"/>
    <path fill="#c4cbcb" fill-rule="evenodd" d="m365.98975 543.22126.01125-.28625-.01125-.3125.01125-.285.08125-.27125.02875-.095.04125-.095.05375-.08125.05375-.0825.055-.08.04-.08375.04-.08.01625-.09625v-.21625l-.05625-.19125-.05375-.16375-.04125-.21625v-1.11625l-.0675-.36375-.055-.1925-.09375-.19125-.11125-.175-.12125-.17625-.12125-.1775-.10875-.18875-.09625-.1775-.05375-.19125-.0275-.19.01375-.205.0275-.17625.04-.175.05625-.17875.04-.1875.02625-.19375v-.1875l-.06625-.49125-.11-.56875-.13625-.615-.11-.55375-.09375-.47625-.04-.3125.04-.08125.13625.205.17625.29875.14875.2825.1375.2475.11.22875.08125.2325.08125.22875.0675.25875.08125.27375.05375.27125.055.27125v.25625l.0125.26125v.515l.0275.25875.0275.27125.05375.25875.0825.25875.095.27125.10875.23125.095.25875.1225.23.12125.23125.12375.25625.06625.0975.06875.09625.08125.095.06875.0925.09625.0825.07875.09625.11.08.0825.0975.08125.0925.08125.08375.0675.1075.055.095.0675.11.02625.12125.03.1075v.1225l.01125.3275.05375.315.08375.31.1075.3125.12125.3125.10875.3.12375.2975.09625.29875h-.545l-.19125-.0125-.1625-.0125-.17625-.015-.19125-.02625h-.175l-.1775-.0275-.17625-.02625-.1775-.015-.17625-.015-.175-.02625-.17875-.015-.19-.0125-.175-.02625zm-9.42138-23.0494.01375.19v.59875l.015.1875.0125.19375.03875.175.06875.17625.07125.13625.0925.15125.0825.12.08125.1225.08125.12375.08125.1225.09625.1075.09375.12125.09625.11.0825.12.08.1125.095.1225.0825.12125.06625.12.0825.13625.0675.1375.0975.24375.06625.25875.04125.25875.02625.26875.02875.24625.06625.25875.0825.245.12125.21875.10875.08125.11-.03.08125-.13375.08-.14875.0825-.14875.0675-.09625.0825.025.095.16625.19.4875.19125.50375.17625.5025.165.5275.1625.505.1625.50125.14875.53125.1225.53.12125.515.1225.5325.11.5275.095.53.0825.5325.08125.54375.0525.53.05625.55625.06625.25875.12125-.12125.15-.4225.16375-.64.15-.7475.14875-.7875.08125-.7325.03-.59875-.01625-.25875-.04125-.24625-.04-.24375-.0675-.245-.06625-.24375-.0975-.24375-.0675-.245-.09375-.23125-.09625-.24875-.095-.24-.1075-.24625-.0975-.23-.08125-.24375-.08125-.25875-.0675-.24375-.055-.2475-.04-.27-.0125-.29875v-.65125l-.015-.315-.04-.2975-.08125-.2575-.15125-.21625-.15-.16375-.12125-.17875-.12125-.175-.09375-.19125-.08375-.19-.0675-.19-.05375-.19125-.05625-.205-.05125-.1875-.0425-.205-.04125-.2025-.04125-.20625-.04-.21625-.06875-.2025-.0675-.2175-.06625-.205-.19125-.0975-.19125-.06625-.19-.08125-.19-.05375-.20375-.0575-.19-.04-.19125-.03875-.19125-.04125-.18875-.0125-.19125-.015h-.5425l-.1775.0275-.17375.02875-.18.025v-.0125zm2.2705 24.5728h.23125l.1075.0125.10875.0125.12375.01375.10875.015h.10875l.1225.025h.21625l.12375.01625h.10875l.12125-.01625h.1075l.10875-.025.11-.015.27125-.08.26-.08375.25625-.08.2575-.11.26-.1075.25625-.095.26-.1225.2575-.095.25875-.12375.25625-.1075.26-.1075.26125-.0975.26875-.09375.2575-.095.28625-.0825.2725-.08125-.01125-.44875-.015-.57125-.0275-.6375-.04125-.625-.06875-.53-.10875-.3925-.1475-.16375-.20625.1075-.31125.36625-.28625.27375-.25875.19-.2275.1225-.22.05375h-.20375l-.1925-.0275-.1875-.05625-.1775-.0925-.19-.0975-.1775-.1075-.19-.095-.20375-.06875-.20375-.05375-.23125-.0125-.2575.0275-.17625.03875-.16375.04125-.1625.05375-.1625.04125-.165.06875-.14875.06625-.1375.0675-.14875.07125-.15.08125-.135.08-.14875.08125-.135.095-.13875.11-.14875.1075-.1225.11125-.14875.1075.0825.39375.06625.3925.055.39625.0675.395.0675.39125.06875.395.06875.38125.0675.395h-.01375zm2.89426-23.103.14875.31.16375.3125.135.3125.15125.3125.15.3125.12125.315.14875.3125.15125.3125.135.2975.16375.3125.15.30125.16125.2975.17625.285.17875.29875.19.2725.19.28375.06875.02625.09375-.05125.0975-.12375.09375-.16375.095-.13625.0825-.12.06625-.04125.055.04125.16375.47375.12125.49.0675.5175.0425.50125.04.515.06875.49.095.51875.135.475.0825.17625.10625.17875.10875.175.11125.17625.10875.16375.13625.16375.135.16.135.16625.1225.16125.13625.16125.13625.16375.13625.17875.1225.175.10875.16375.10875.19.10875.17875.12125.24375.11.245.1075.24375.11.24375.095.24625.0925.2575.095.24375.09625.24375.0975.26125.0925.25625.0975.245.09375.24625.09625.24375.10875.25875.1075.23.12375.24375.09375.16625.10875.16125.12375.16375.13375.14875.1375.16375.13625.14875.135.15125.13625.16375.15.13125.12125.18125.1225.14875.11.16375.09375.175.07.19125.0675.175.04.18875v.3825l-.05625.355-.12125.36625-.13625.35375-.17625.36375-.17625.35625-.14875.36625-.10875.36625-.0275.2975-.0275.315v.6375l.12125-.0125.12375-.015h.1225l.12125-.01125.1225-.015h.3675l.02625-.2175.02875-.2325.0125-.24375.01375-.23125.02875-.2175.04-.23.06875-.2175.1075-.1775.08125-.05125.09375-.0175.13875.0175.14875.02375.13625.0275h.12l.0825-.04125.04-.08125.04125-.24375-.02625-.24375-.055-.2475-.0675-.25625-.09625-.23125-.06625-.25625-.0825-.245-.02625-.24625.02625-.28625.0825-.2975.095-.315.09375-.2975.08125-.28375.04125-.3v-.27375l-.095-.25625-.12125-.19-.14875-.16375-.1775-.16375-.1775-.14875-.20375-.1225-.20375-.12125-.21875-.1075-.2025-.125-.2175-.12125-.205-.11-.2025-.1225-.205-.13375-.17625-.15125-.16125-.15-.15-.175-.1225-.19375-.19-.405-.1775-.4075-.15-.4225-.13625-.43375-.1075-.435-.10875-.4475-.09625-.43625-.09625-.4475-.09375-.44625-.09375-.45125-.09625-.4475-.12375-.45125-.12125-.435-.13625-.42-.15-.43375-.19-.40875-.0825-.0675-.11875.05375-.16375.095-.15.15125-.1775.1225-.135.1075-.09625.03875-.04-.07875-.0275-.395.0675-.38125.09625-.3925.14875-.38125.12125-.395.10875-.37875.07-.395v-.37875l-.03-.205-.04-.2175-.04-.1925-.06875-.18875-.0675-.205-.0675-.19-.08125-.19-.095-.19125-.095-.19-.09625-.17625-.09375-.19-.08125-.19-.0975-.19125-.09375-.19-.08125-.18875-.0825-.205-.24375.0425-.25875.01125-.24375.015-.2475.0125h-.25625l-.245-.0125-.24375-.015-.24625-.02625-.2425-.0275-.2325-.04125-.23125-.05375-.23125-.05375-.2175-.07-.215-.09375-.2325-.08-.19-.1075h-.015zm7.95187.9351-.04125-.06625-.04125.08125-.0525.175-.05625.2475-.0525.295-.02875.2875-.02625.27125v.2025l.02625.1375.055.13625.06875.13625.08.135.06875.13625.08.1375.08375.13375.04.14875.04.2325.02875.21875.02625.20375.015.19.0275.17375.04125.1925.06375.2025.11125.205.0825.1075.08125.11.08125.11.095.095.0825.11.0925.09.1.0975.105.095.095.09625.09625.0925.10875.11.10875.095.09375.0975.0975.095.09125.1075.0975.095.08125.09375.08125.095.0825.11.08125.10875.06875.1075.06625.125.09625.1225.0675.12125.0825.1225.06625.1225.0825.12125.0675.1225.06875.11.0525.1075.08125.11.05875.0925.08.13625.08125.125.0675.13375.0825.1225.08.13625.08125.125.06875.1225.08125.13125.08125.13875.0825.12.0825.125.09375.11875.08375.1375.08.12125.08125.1225.09375.1225.0975.12125.1075.11.13625.11.13375.1075.11125.125.1075.1075.08375.12125.05125.14875.04125.41125.02875.43125-.02875.4075-.04125.42-.02625.4125v.40625l.055.4075.10875.395.10875.2175.10875.215.12375.1925.13375.2025.15125.19125.1625.175.17625.19375.1625.1725.16375.19375.17625.175.16375.17625.16375.2025.1475.17875.1375.205.13625.2025.095.2175.18875.44875.13625.46125.1225.46125.0825.46375.0825.47375.06625.47625.0825.49125.09375.4875.19-.095.1775-.08.1775-.09625.18875-.095.19125-.0675.19-.06875.19-.05375.1925-.05375.2025-.02625.18875-.015h.20625l.21625.015.2175.0525.21875.06625.2025.095.24375.1225-.13375-.1875-.1525-.20125-.135-.195-.13375-.175-.1375-.19125-.135-.19-.1375-.17625-.15-.1775-.13375-.19125-.135-.19-.13875-.19-.13375-.17625-.12375-.19-.135-.2025-.1225-.205-.12375-.2175-.09375-.16375-.09625-.18875-.09375-.165-.09625-.19125-.08125-.1725-.08125-.17875-.09375-.1775-.08375-.19125-.08125-.1875-.0675-.17875-.08125-.1875-.0825-.17875-.08-.19-.06875-.17625-.07-.19-.065-.17625-.12375-.27125-.135-.26-.1375-.245-.13375-.22875-.13625-.2325-.15125-.24375-.135-.2175-.135-.22-.1375-.2175-.1075-.22875-.09625-.245-.08-.24625-.0825-.25875-.04-.26875-.04125-.285v-.625l-.0675-.3125-.0975-.28875-.12125-.285-.16375-.27125-.20375-.25875-.20375-.24375-.2175-.255-.23125-.23375-.24125-.2325-.2325-.23125-.23375-.24-.23-.23125-.1875-.235-.1775-.23125-.15-.25625-.13625-.245-.16125-.23125-.15375-.24375-.17625-.2325-.17375-.23-.19125-.24625-.17625-.2175-.205-.21625-.17375-.245-.19375-.22-.1875-.22875-.1925-.2175-.1625-.2175-.175-.24375-.165-.2325-.16375-.22875-.09375-.15125-.08125-.16125-.09625-.16375-.095-.16625-.095-.17375-.06875-.1775-.095-.17875-.08125-.1725-.07-.19125-.065-.1775-.06875-.17875-.06875-.17625-.05375-.175-.055-.16375-.055-.16375-.04-.14875zm2.18975 1.9995.1075.25625.095.28625.08125.285.08125.28625.09625.27.1225.25875.12125.25875.16375.245.0525.0825.0575.06625.0825.05375.08.05625.0825.05375.08.04125.095.05375.09375.04125.08375.04125.08.05125.095.0425.0975.05625.08125.0525.08.05625.08375.05125.06625.06875.135.1925.1375.18875.12125.205.1225.2025.11.2025.12125.22.10875.2025.10875.19-.02625-.23125-.01375-.245v-.25875l-.015-.24375-.02625-.24375-.05375-.245-.06875-.23125-.11-.2-.0675-.1125-.09625-.095-.08-.095-.09375-.08125-.11125-.08-.10625-.06875-.11-.06875-.11-.0675-.10625-.06875-.12375-.06875-.1225-.0675-.1075-.06625-.11-.08375-.09375-.065-.11-.06875-.0825-.0975-.09375-.08125-.08375-.08-.08125-.095-.065-.095-.0825-.08125-.06875-.095-.08125-.0975-.06875-.0925-.0675-.09625-.08125-.095-.0675-.095-.0675-.095-.06875-.095-.05375-.095-.08125-.0975-.0675-.07875z"/>
    <path fill="#c4cbcb" fill-rule="evenodd" d="m372.19825 521.88336.11.015.09625.02375.1075.03.10875.01375.095.015.10875.0125.09375.02625.10875.0125.0975.015.10625.015.11.01125.095.015.095.0125.10875.0125.1075.01375.11.015.0825.3925.08125.39375.0675.43875.08125.40625.09625.4075.1225.395.1625.35375.21625.3375.22.2325.25875.22875.24375.2325.27125.1925.285.2025.28625.17625.28625.19.2975.17625.3.1775.29875.17625.28375.19.2875.19125.27125.205.2725.2025.2425.23125.23125.245.1375.16375.135.1625.10875.17625.095.19.095.17875.095.2025.0975.19.06625.2025.0675.20375.06875.205.07.2025.05125.205.055.215.04125.205.04125.205.05375.205.01375.17625-.02625.1625-.055.17625-.05625.17875-.0675.175-.05125.17625-.01625.16375.02625.165.055.13.05375.15125.07.17875.0675.14875.06875.1775.08125.17625.08125.16375.095.14875.09625.14875.09375.1225.09625.1075.1075.085.10875.05375.11.0125.1075-.0125.12125-.05375.0975-.0975.0675-.1075.02625-.1225.01375-.12125-.0275-.1375-.03875-.14875-.07-.16375-.06875-.1625-.08125-.15-.08125-.175-.08125-.16375-.0675-.17625-.08-.16375-.05625-.165-.04-.16125-.01375-.1475v-.15375l.02625-.175.04125-.2025.0425-.19125.0525-.1625.06625-.11.0575-.04.065.04.165.285.11.3.08.29875.06875.32625.04125.325.06625.3275.055.3125.095.3125.0825.2175.12125.19.1225.1875.1225.19125.15.19.12125.17875.11.19.08125.205.0675.19.055.205.0525.20125.02875.21875.04125.205.03875.20375.0425.2025.06875.19.0675.19.065.20375.08375.1925.06625.19.0825.19.0825.18875.0825.19.08125.19125.09375.2025.0825.19.08125.1925.08125.19125.08125.2025.0825.19.08125.205.06875.19125.06625.175.08375.17625.06625.19.06875.19.05375.19125.04.19.01375.19-.01375.19125-.04.24375-.095.24375-.09375.2175-.12375.245-.13625.21875-.13625.23-.12125.23-.10875.23125.05375-.285.09625-.3125.12125-.34.10875-.3125.0825-.28125.025-.26-.065-.19375-.17875-.0925-.23-.02625-.1775.10875-.13625.215-.10625.28625-.09875.3275-.08.33875-.09375.3125-.10875.27125-.0825.05375-.0675.05625-.07.05375-.0675.0675-.06625.05375-.0825.05375-.055.05625-.06625.05375-.07.06875-.0675.05375-.06625.05375-.06875.0675-.06875.05375-.06875.05625-.06625.05375-.06875.06875.06875-.17875.06625-.175.0825-.17625.08125-.1775.0675-.17625.08125-.17875.08125-.175.0825-.17625.0675-.1775.08125-.17625.07-.17875.08125-.175.0675-.17625.06875-.175.055-.17875.05125-.17625.07-.285.06875-.28625.04-.285.0525-.28625.0275-.285.015-.28625-.015-.2825-.0275-.28625-.04-.205-.0525-.25875-.0975-.25875-.1225-.24375-.1075-.2175-.135-.14875-.1225-.04-.10875.09375-.19125.3925-.09625.4375-.025.46125.025.5025.0425.48875.04125.49.0125.47375-.05375.46625-.055.23-.095.24375-.10875.2175-.11.2025-.135.2325-.095.2175-.0825.22875-.0525.24625-.04-.285.01125-.28625.055-.3125.07-.3125.06625-.3125.04-.3.0275-.2975-.05375-.25875-.06625-.16125-.06875-.17875-.08125-.1625-.11-.15-.1075-.14875-.10875-.15125-.1225-.14625-.1225-.14875-.12375-.15125-.12125-.135-.12375-.15125-.1075-.16125-.095-.15125-.095-.15125-.0825-.16125-.05375-.16125-.0825-.2725-.09375-.28625-.0825-.27125-.10625-.27125-.0825-.2725-.09625-.27125-.09375-.27375-.0975-.285-.1075-.25875-.0825-.28375-.095-.27375-.08125-.285-.08125-.28625-.08125-.285-.0675-.27125-.07-.28375-.04125-.33875v-.35375l.01625-.3525.025-.35625.02875-.35125-.01375-.35375-.04-.34-.0825-.33875-.08125-.14875-.0675-.14875-.08125-.14-.10875-.14875-.11-.13625-.10875-.135-.12125-.12375-.10875-.135-.1225-.12125-.12375-.1225-.135-.13625-.12375-.135-.10625-.12375-.11125-.135-.1075-.15125-.095-.13625-.15-.2425-.1225-.26125-.1075-.27-.10875-.25625-.10875-.26125-.13875-.2425-.13375-.22875-.1775-.205-.13625-.1375-.1775-.13375-.16125-.0975-.1775-.11-.18875-.1075-.19125-.08125-.18875-.095-.19-.0825-.19125-.09375-.19125-.0825-.19-.095-.1775-.11-.16375-.1075-.16375-.1225-.1475-.13625-.135-.13375-.12375-.19125-.12375-.205-.1075-.19-.09375-.2175-.08-.2175-.0825-.2175-.06875-.21875-.06875-.2425-.0675-.23125-.055-.2175-.0675-.24375-.05375-.22-.0675-.23-.06875-.22875-.0675-.22-.07-.2175z"/>
    <path fill="#c4cbcb" fill-rule="evenodd" d="M375.37938 522.71336h.245l.24625-.015.245-.03875.24375-.05625.24375-.05375.245-.07.2575-.08125.24625-.0775.245-.08375.25625-.07.25875-.05375.245-.06625.26-.04125.2425-.025.25875-.015.2575.015.095.16125.095.17875.09625.1775.095.17375.11.1775.09375.17625.10875.17625.11.19.07875.17875.09625.19.11.17375.095.19.08125.1775.08125.19125.0675.19.07.18875.0525.3v.3125l-.0275.3125-.05375.3125-.02875.3125v.3125l.0575.285.10625.27625.05625.05125.06625.04125h.09625l.09375-.01375.095-.0275.10875-.04125.11-.04125.11-.05125.10625-.05625.10875-.04.0975-.04125.095-.02875h.0675l.06625.015.04.04125.015.0675.04125.2425v.4125l-.01375.1875-.0275.17875-.015.1725-.02375.17875-.01625.16375-.01375.16125.01375.1775.04.17625.0425.19.095.19125.12125.205.18.2175.2025.23125.1625.2025.17625.2325.16375.25625.17625.27125.14875.3.16375.2975.13625.3275.1625.3125.13625.325.15.32625.13625.315.1375.3125.13375.29875.13375.2825.13875.26125.135.245.1225.2025.15.205.12125.205.13625.2025.14875.2175.15125.205.135.2025.135.205.12375.2175.14875.2025.12375.2175.12125.2175.11.22875.0925.205.0975.23.09375.24625.1375.44875.1225.4475.08125.46375.0675.47375.01375.46125.0125.47625-.0125.47625-.04125.46375-.0675.27125-.0825.24375-.09375.24625-.1225.215-.15.2325-.13625.23125-.14875.2325-.15.22875-.04125.0275h-.08125l-.055.0125-.08.01375-.06875.0275-.0675.01375-.0825.015-.08125.0125-.0825.015-.06625.02625-.0825.0125-.0825.015-.065.01375-.07.0125-.05375.0125-.05375.015.1075-.4625.135-.4075.1375-.395.15-.37875.12125-.38125.0825-.4075.06875-.42.025-.46375-.04-.25875-.095-.2175-.13625-.21625-.14875-.2175-.165-.205-.1625-.2025-.12125-.2175-.10875-.23-.09625-.35375-.06625-.395-.07-.40625-.04-.43625-.04-.42-.0675-.41-.0975-.37875-.13375-.3425-.16375-.2825-.16375-.27375-.16375-.27125-.17625-.25875-.175-.2725-.19125-.25875-.205-.2575-.19125-.25625-.18875-.26125-.20375-.25625-.175-.25875-.19125-.25875-.19125-.25625-.17625-.25875-.16375-.285-.1475-.27125-.0975-.17625-.08-.205-.06875-.1925-.06625-.19125-.07-.1875-.06875-.19-.08125-.19125-.0925-.1625-.07-.08125-.0675-.0825-.0675-.06625-.06875-.06875-.08125-.05375-.06875-.05625-.08125-.0675-.0825-.05375-.06625-.05125-.08125-.05875-.08375-.05125-.06625-.05375-.0825-.07125-.0675-.0675-.0675-.08125-.04-.0825-.1375-.23-.10875-.205-.0675-.23375-.05375-.225-.07-.22-.08125-.22-.09375-.2-.135-.205-.09625-.05125-.10875-.03125h-.12125l-.1225.01625-.13625.025-.12375.0175h-.1075l-.1075-.0275-.28625-.16625-.245-.19-.245-.2325-.23-.25625-.20375-.27375-.20375-.2975-.19375-.315-.19-.31-.175-.3275-.17625-.33875-.1625-.33875-.165-.315-.17625-.325-.17375-.3125-.18-.2975-.175-.28625h-.015zm7.87112 2.2705.08125.42.08125.4075.08.42.07.435.06875.43625.07875.435.07125.435.08.44625.08125.4375.09625.43375.08125.435.10625.4225.0975.4225.12375.405.12125.4075.14875.39625.12125.285.1375.27125.15.27125.1625.2725.175.245.165.27125.19125.24375.17375.25875.1925.25875.19.22875.2025.26.19125.24375.17625.26125.18875.24375.19125.25625.1775.245.1775.285.17625.25875.17625.25625.19125.24625.17625.2325.16375.23.17625.23125.1625.24375.16375.23.14625.2325.165.23125.16375.24375.13625.25875.14875.28625.13625.27125.13625.3.095.205.1225.2.1375.235.13375.22875.16375.23.19.25875.1925.25875.18875.2325.2175.25875.20375.24375.2025.22875.20375.2325.205.2175.2025.19.19125.19125.175.175-.20125-.27125-.205-.285-.20375-.28625-.20375-.3125-.2175-.2975-.20375-.3125-.20375-.3275-.205-.32375-.19-.3125-.215-.3275-.19125-.3125-.20375-.3275-.17625-.2975-.205-.2975-.17625-.30125-.1775-.27-.285-.4225-.28875-.40875-.2825-.42125-.3125-.40625-.28625-.41-.3125-.4075-.2975-.4075-.28625-.4075-.3-.4075-.28375-.42-.2725-.4225-.2725-.42-.24375-.435-.245-.4375-.2175-.44625-.2175-.44875-.23-.64-.16375-.6525-.095-.66625-.08-.67875-.0425-.6925-.055-.69375-.05375-.69125-.0825-.66625-.0925-.06875-.08125-.0825-.08375-.07875-.095-.085-.08125-.0775-.095-.08375-.08125-.11-.08125-.095-.0975-.1075-.07875-.095-.07-.11-.08125-.1075-.08-.11-.07-.11-.0675-.12125-.05375-.12z"/>
    <path fill="#ed2224" fill-rule="evenodd" d="m386.511 528.63876.2725-1.645-.0675.01375-.08125.0125-.09625.015h-.59625l-.1225-.015-.09625-.0125-.09375-.01375-.0975-.0275-.09375-.0125-.0825-.02875-.0675-.0275-.135-.05125-.1375-.05625-.1075-.0675-.135-.06875-.13625-.08-.11-.09625-.1225-.0825-.1075-.0925-.1225-.095-.095-.0975-.1225-.1075-.095-.11-.09625-.1075-.09375-.1225-.06875-.11-.0825-.1075-.1625-.2725-.1075-.27125-.0825-.29875-.06875-.3-.0675-.285-.0675-.29875-.11-.25875-.1325-.25875-.08375-.095-.0675-.08-.09625-.06875-.08125-.0825-.095-.05125-.09625-.06875-.0925-.05625-.11-.05375-.11-.05375-.1075-.04125-.10875-.03875-.12125-.0425-.11125-.04125-.1075-.02875-.10875-.03875-.10875-.0275-.15125-.04125-.13375-.04125-.135-.04-.15-.04125-.13625-.02625-.15125-.03-.135-.02375-.14875-.0275-.13625-.02875-.14875-.0125-.15-.015-.14875-.01125h-.45l-.15.01125-.21625.0275-.205.04125-.2025.03875-.205.04375-.2175.06625-.2175.05625-.19125.06875-.2025.05125-.205.07-.20125.05125-.205.05625-.21625.0425-.20625.04125-.2025.02625-.205.0275h-.325l-.11-.0275-.10875-.01375-.10875-.0275-.095-.04125-.10875-.0275-.095-.04125-.09375-.05375-.125-.04125-.09375-.04125-.10875-.05125-.11-.04125-.0925-.0425-.11-.04125-.10875-.03875-.10875-.04125-.09625-.015-.09375-.015-.095-.01-.095-.01375-.09625-.015-.09625-.0125h-.0925l-.0975-.01375-.09125-.015h-.11125l-.08125-.0125-.095-.02625-.11-.0125-.095-.015-.095-.015-.09375-.02875-.10875-.03875-.09625-.04-.095-.05375-.1075-.0675-.09625-.05625-.10875-.06875-.09625-.08-.1075-.06875-.08-.05375-.11-.05375-.11-.05625-.09375-.05375-.09625-.02875-.1075-.025-.10875-.0125h-.09625l-.23.0125-.205.025-.18875.02875-.19125.0275-.1775.04125-.17625.02625-.17375.05375-.16625.0425-.19.055-.19.04-.19125.05375-.215.05375-.2325.05625-.24625.05375-.27125.0675-.2975.05375.06875.24625.05375.245.06625.24375.0675.2325.07.24125.05375.24375.06875.2325.0525.24375.1925-.0125.175-.02625.19125-.0275.19125-.05375.18875-.04125.19125-.04125.18875-.04125.19125-.03875.1775-.0425.2025-.03875.1775-.02875.19-.04.19-.01375.17625-.03h.3675l.1775.03.19.04125.175.05375.17625.06875.17875.0675.19125.08125.175.095.16375.0825.17625.09375.1775.08.17625.0825.1925.05625.17375.05125.19125.0425.17625.01375h.20375l.14875-.01375h.13875l.14875.01375.14875.015.15.0125.135.02625.14875.0275.13625.02625.15125.03.14875.04125.13625.02375.14875.015.135.0275.1625.02625.1375.015h.14875l.15.0125.15125-.0125h.14875l.13375-.015.15125-.015.14875-.01125.15-.0125.1475-.03.1375-.02375.1625-.03.1375-.02625.14875-.0275.13625-.02625.1625-.04125.13625-.0275.15-.04125.14875-.02625.15125-.0275.14875-.02875.135-.025.15125-.02875.14875-.0275.15-.0125.14875-.01375.135-.025h.15l.15-.015h.435l.14875.015.15.01.19.02875.17625.04.19125.04125.18875.05375.1775.06875.175.0825.17875.095.17625.1075.1625.1225.16375.13625.16375.14875.15.17625.14875.18.13625.20125.14875.23125.1225.2325.245 1.19625.0275.11875.0525.09875.0575.10875.06625.09375.08.08.095.0825.0975.08125.095.06875.10875.08.1075.07125.11.0675.12125.06625.10875.05375.12375.05625.12125.06875.09625.05375.0675.03875.0675.02625.08125.0275.0825.04375.09375.025.0825.02625.09625.015.095.02625.09375.015.09375.0125.09625.01375h.3125l.09625-.01375.095-.0125h-.015z"/>
    <path fill="#ed2224" fill-rule="evenodd" d="m386.02275 531.50736.20375-1.32125-.06875.015h-.08125l-.08125-.015h-.0825l-.0925-.02625-.09625-.0275-.08125-.02625-.11125-.0275-.09375-.04125-.095-.02625-.095-.04125-.09375-.04-.0825-.02625-.0675-.04125-.09625-.0275-.0675-.02625-.2025-.08375-.1375-.0675-.095-.0425-.03875-.05125-.04125-.05625-.055-.095-.0825-.13375-.10875-.19375-.13625-.21625-.08125-.18875-.04-.1925-.0275-.17625-.02875-.175-.0125-.205-.0275-.2175-.0675-.2425-.055-.13875-.08125-.12-.10875-.13625-.12375-.1225-.135-.12125-.1625-.11-.14875-.125-.17875-.1075-.16125-.1075-.1775-.095-.1775-.08-.16125-.06875-.15-.06875-.135-.0675-.12375-.05375-.1075-.0275-.13625-.04125-.12375-.04125-.135-.04125-.1225-.025-.12125-.015-.1225-.02875-.12375-.0125-.12-.02625h-.8725l-.12125.01125-.19125.0275-.2025.02875-.19.05375-.18.04-.18875.05625-.18875.0525-.17875.05625-.18875.05375-.19125.04-.19.04375-.17625.05375-.19.03875-.19.02625-.19125.015-.19.015h-.2975l-.11-.015-.10875-.015-.135-.02625-.1225-.015-.12125-.02375-.12375-.04375-.13625-.025-.12125-.04125-.12375-.0275-.13625-.04125-.12-.02625-.12375-.0425-.10875-.03875-.10875-.02875-.10875-.0275-.08-.02625-.09875-.0125-.0925-.02875-.09625-.0125-.0825-.0275h-.095l-.09375-.02875h-.09375l-.11125-.0125-.09375-.02625-.09625-.0125-.095-.015-.08125-.02625-.09625-.015-.095-.0125-.08125-.01375-.10875-.0425-.0925-.02625-.11-.05375-.12375-.03875-.10875-.05875-.1075-.04-.1225-.05125-.11-.0575-.1225-.05375-.1075-.04-.12375-.02875-.10625-.03875-.10875-.0275-.12375-.015-.08125-.01125-.10875.01125-.2025.015h-.38125l-.16375-.015-.17625-.01125h-.15l-.1625-.015-.15-.0125h-.34125l-.1875.0125h-.18l-.20125.02625-.2325.03-.245.03875-.27125.04125.06875.23.0525.2175.07.2175.05375.21875.05625.215.0525.22.0675.23.04.21625.1775-.02625h.1775l.165-.025.16-.02875.17625-.0125.16375-.02625.1775-.015.16375-.015.17625-.02625.16375-.015.175-.0125h.16375l.1775-.01375h.16375l.175.01375h.16125l.165.0125.16375.015.1625.02625.16375.0425.135.02625.16375.02875.14875.04.14875.05375.15.02625.15125.05375.15.05625.1625.04125.14875.05375.16375.04125.17625.06875.1625.04125.14875.04.14875.05125.15125.02875.15.04125.14875.03875.1375.0425.135.04125.14875.03875.15.03.13625.03875.13625.02875.14875.025.13625.01625.135.025.1225.0175.135.01125h.2875l.2725-.02875.27-.025.28625-.03125.27375-.05125.27-.05625.28375-.05375.27375-.06875.2725-.03875.27-.05375.2725-.04125.28625-.04125.2575-.025h.54375l.27125.025.1775.02625.20375.04.23.07.23125.06875.24625.08.25625.11.2575.1075.24625.14875.25875.1375.245.16375.23.16.21875.19125.2025.1925.17875.2025.16125.2325.13625.22875.2875 1.0475.03875.17875.0275.12.04125.07.05375.05125.0675.03875.08125.0425.1375.05875.17625.09.1075.05875.13625.05375.1225.04125.14875.02375.12625.03.13125.0125.12375.04125.13625.04125z"/>
    <path fill="#ed2224" fill-rule="evenodd" d="m386.511 533.74866-.1075-.13625-.09625-.15-.08125-.14875-.0675-.16375-.0675-.1625-.06875-.16375-.03875-.18875-.04125-.1775-.15125.015-.09375-.015-.10875-.0125-.0675-.025-.0825-.03125-.055-.04125-.0525-.025-.0425-.04125-.0675-.04125-.08125-.05375-.09625-.06875-.09375-.095-.095-.11-.095-.13375-.08375-.16375-.06625-.16125-.04125-.11-.0275-.12375-.0275-.105-.02625-.125-.01375-.125-.04125-.1075-.01375-.1075-.01375-.095-.03875-.12125-.06875-.1225-.0825-.11-.09375-.095-.10875-.095-.1375-.08125-.1225-.0825-.12125-.06625-.15-.06625-.135-.07-.15125-.05375-.13625-.03875-.12125-.045-.1225-.05625-.10875-.02375-.10875-.03875-.13625-.04375-.13625-.0425-.1225-.03875-.12125-.04125-.1225-.04125-.12125-.04-.10875-.04125-.12375-.02375-.1225-.03-.10875-.02625-.12125-.0275-.13625-.01375-.12125-.015h-.395l-.205.015-.19.02625-.175.015-.19125.02625-.17625.015-.1625.015-.1775.02375-.17875.015-.175.0125-.1775.01375-.17375.015-.17875.0125h-1.19625l-.10875.0125h-.23125l-.12375.01375h-.24125l-.12375-.01375h-.1075l-.125-.0125-.10875-.0125-.10875-.015-.1075-.02625-.0825-.0275-.1075-.02625-.11-.015-.10875-.02625-.12125-.015-.1225-.02625-.1375-.0275-.12125-.015-.13375-.02625h-.125l-.135-.0275-.1225-.01375-.12125-.0125h-.11125l-.0925-.0125h-.27375l-.13625-.0175-.1075-.02375-.0675-.04125-.0675-.05375-.0275-.06875-.02875-.05625-.0275-.06625-.02625-.05375-.04-.0675-.0275-.05375-.07-.04125-.06625-.0425-.09375-.01125-.125-.015-.16125.015-.2025.02625-.1925.0275-.20375.02625-.17625.015-.18875.02375-.19125.015-.19.03-.19.00875-.19125.03-.205.01375-.2025.0125-.2175.0125-.245.02875-.24375.015-.27375.025-.285.02625.06625.1925.0575.17625.07875.16375.07.14875.05375.16375.06875.16375.055.175.05375.2175.19.0275.19.01375h.2025l.22-.01375.21625-.0275.21625-.01375.21875-.04.21875-.04125.21625-.04125.21625-.03875.20375-.0425.205-.05125.20375-.0575.1775-.0425.18875-.04125.16375-.03875.19125-.0275.1625-.02625h.26l.095.0125.0925.02875.07.03.0675.05125.055.04125.04.05375.0525.0675.04125.06875.05625.05375.065.06875.07.05375.07.0675.1875.0275.17875.02625.19.0275.18875.02625.1925.0425.18875.04125.19.02625.1775.05375.18875.0275.17875.04125.1875.02875.18.04.1475.02625.16375.015.16375.0125.13375.01375h.27375l.28375.015.27375-.015h.2575l.28375-.01375.27375-.0125h.28375l.27375-.015.27-.0125h1.11625l.2575.0275.2875.0125.27.04125.1775.0125.19125.02875.18875.0125.20375.01375.20375.0275.20375.02625.20375.0425.21875.05375.20125.065.19125.07125.19125.095.19.1225.16375.13375.1625.17875.13625.175.1225.2325.8025 1.30375.0275.05375.03875.06875.04125.0575.055.06625.04125.06625.04125.05625.02375.04125.01625.03875.0675.04375.06625.04.11.03875.095.02625.10875.015h.10875l.09625-.015.095-.02625h-.015z"/>
    <path fill="#ed2224" fill-rule="evenodd" d="m389.35275 536.31686-.055-.08-.0525-.06875-.0725-.08125-.065-.07-.055-.0925-.05375-.06875-.0675-.095-.0675-.08125-.0675-.08-.07-.08375-.08-.08-.06875-.0975-.08375-.08125-.07875-.0825-.0825-.08125-.095-.095-.15.0275h-.135l-.15125.015-.12.01375h-.23125l-.0825-.02875-.0675-.0275-.06625-.02625-.0975-.04125-.1075-.0425-.1225-.04125-.12375-.05125-.135-.0675-.10875-.08375-.10875-.1075-.05375-.11-.07125-.11-.06625-.10875-.08125-.12-.09375-.11-.08-.1075-.07125-.095-.0675-.095-.0825-.09375-.06625-.0975-.095-.1075-.10875-.12125-.12375-.11-.12125-.095-.12125-.1225-.1225-.095-.1225-.095-.13875-.1075-.1325-.08375-.12375-.08-.12-.06875-.11125-.07-.10875-.0375-.09375-.04125-.1375-.04125-.15-.0275-.13375-.04125-.13875-.02625-.12125-.0275-.13625-.02625-.135-.015-.135-.02875-.13875-.0125-.12-.0125-.13625-.015-.13625-.0125h-.2725l-.1325.0125h-.14l-.1875.0275-.18875.0125-.19375.02875-.17625.015-.19.01125-.16375.0275-.19.015-.17875.02625h-.17375l-.1775.0125-.1775.02875h-.18875l-.16375.0125h-.7475l-.14875.015-.10875.0125-.10875.01375-.095.0275h-.245l-.19125-.0125-.095-.02875h-.10875l-.10875-.0275-.095-.0125-.10875-.02875-.10875-.0125-.1075-.02625-.11-.0425-.10875-.01125-.095-.0275-.09375-.02875-.09625-.0275-.11-.02375-.0925-.03-.0975-.02625-.08-.0275-.17875-.0675-.135-.06875-.10875-.08125-.095-.0825-.08125-.06625-.05375-.0825-.06875-.06625-.03875-.07-.05625-.06875-.055-.06625-.0525-.05625-.06875-.04125-.095-.025-.11-.01625h-.135l-.15.01625-.21625.025-.23125.03125-.24375.04-.24625.03875-.25875.02875-.25875.05375-.25625.04-.27125.04125-.27375.04125-.27125.04125-.285.04125-.28625.025-.285.04125-.29875.0275-.28625.02625-.285.03.0675.2025.06875.175.0675.16375.095.15125.0825.14875.0675.16125.0825.19375.06625.2025.19.01375h.48875l.26-.02875.29875-.04125.285-.04.31375-.0525.31125-.05375.3-.06875.3125-.06875.28625-.06875.285-.0675.2575-.05375.23125-.06875.21625-.05625.1925-.03875.1625-.04125.16125-.0125.13875.0125.0925.02875.09625.0375.08.055.055.06875.04375.08125.03875.0975.04125.095.0275.0925.02625.095.04125.0975.04.1075.0425.095.05375.08125.16125.02875.16375.0275.13625.02625.135.0275.1375.02625.1225.04.12125.02875.11125.02625.10625.015.1225.0275h.10875l.12375.01375h.3925l.165-.01375.135-.0275.13625-.015h.13375l.15125-.02625.15-.015.13625-.01375h.14875l.14875-.0125h.15l.14875-.0275h.15l.15-.01125h.3125l.16375-.015h1.0575l.15125.015h.15125l.14875.01125h.14875l.15.015.13375.0125.15125.0125.135.01375.135.015.13875.0125.18875.02875.1775.0275.18875.03875.205.04125.20375.05625.2175.05125.2175.06875.21875.0825.215.08125.23125.095.2325.0975.21625.1075.21875.1225.21625.12125.21875.1375.20375.14875.70625.925.04125.03875.0675.03875.0825.07125.095.06875.095.05125.0675.07.08125.05375.0275.04.04125.01375.05375.0275.0675.015.0825.02625.09375.0125.11.02875.09375.0125.125.0125.12125.01375.10875.015.1075.0125h.11l.0825-.0125.08125-.015.06875-.01375.0525-.0125h-.01375z"/>
    <path fill="#d61f27" fill-rule="evenodd" d="m376.0325 531.77836-.095-.06875-.0825-.0675-.095-.08125-.0675-.0825-.08125-.08125-.055-.0675-.0675-.08125-.04125-.06875-.04125-.0525-.0675-.04-.06625-.04375-.0975-.0125-.08-.01625h-.21875l-.11.01625-.11875.0125-.15.03-.13875.01375-.1625.0275-.1475.03875-.16375.0125-.19125.01375-.175.025.095.1925.095.16375.11.17625.1075.175.13625.16375.1075.14875.165.16375.1625.1375.13625-.04.1225-.02875.12-.0275.11125-.02625.1075-.02625.095-.015.095-.0275.0825-.02625.29875-.04125.23125.02875.1625.0925.10625.125.07.16125.07.1775.04.15.0675.14875.0125-.16375-.0125-.17625-.0275-.175-.055-.17875-.065-.16125-.06875-.17875-.0825-.16-.0825-.17875z"/>
    <path fill="#252b6a" fill-rule="evenodd" d="m367.3205 521.85656.23.72.245.70875.2175.7175.23125.705.23125.70875.24375.7075.23375.69375.2575.705.245.69375.25875.69375.27.6925.2725.69375.285.67875.285.69375.3125.67875.325.68125-.26625.04125-.25.03875-.25625.04125-.24625.0275-.23.01375-.23125.0275-.21875.0125-.21625.01375h-.43375l-.21875.015-.20125-.015h-.1925l-.20375-.01375h-.205l-.2025-.0125-.20375-.0275-.205-.01375-.2025-.0275-.20375-.0175-.20375-.00875-.2175-.0275-.21875-.02625-.2175-.015-.2275-.03875-.22-.03-.24625-.01125-.23-.03-.2425-.02625-.27375-.025-.245-.015-.28625-.02625-.16375-.015-.175-.015h-.17625l-.17875-.02375-.19-.0175-.17625-.0125-.19-.01375-.20375-.0125-.20375-.0125-.20375-.01375-.205-.015-.2025-.015-.2175-.0125h-.23125l-.23-.01125h-1.19875l-.24375.01125h-.25875l-.25875.0275h-.27125l-.27.02875-.28625.025-.2725.02625-.285.04125-.2975.0425-.30125.02875-.29875.05125-.2975.05625-2.3525-13.5375.095.04125.0825.03875.08.0425.08125.04125.08125.05625.0825.04125.08125.03875.08125.03875.0825.0425.08125.04125.08.04125.1.05125.09125.02875.08125.0425.09625.02625.08375.015.16125.02625.16625.0125.16.0125h.15125l.14875-.0125h.16125l.1625-.0125.1525-.01375h.1475l.165-.0125h.325l.14875.0125h.1625l.165.02625.1625.05375.1625.04125.165.0425.1625.0525.1475.05375.16375.06875.13625.05625.16375.06625.15.05625.14875.065.1375.06875.1625.06875.13375.06875.14875.0675.15.06875.135.08.1525.06875.13625.06625.14875.0675.1475.06875.13875.06875.15.06875.1475.065.15.07125.15.05375.1475.05375.1625.06875.15.0525.1625.04.15.05875.16375.03875.16375.04125.1625.03875.20375.0275.2325.015.24375.02625h.54375l.2725-.0125.2975-.01375.3-.03.29875-.0125.2875-.02625.28375-.04125.28625-.04.25875-.02625.245-.04375.2175-.04.18875-.02625z"/>
    <path fill="#ed2224" fill-rule="evenodd" d="m357.07125 534.93026.16375-.06625.175-.0675.165-.05375.17625-.0425.16375-.04375.16375-.04125.1625-.02375.1625-.0275.15-.015.175-.01.16375-.03125.15-.0125h.16375l.16375-.02875h.1625l.1625-.025.215-.02625.2325-.03.21875-.00875.20375-.0175.23125-.0125.2175-.015h.20375l.21625.015h.23125l.20375.0125H362.1l.20625.0175.21375.02375.22.015.23125.02625.2175.025.20375.0175.21625.02375.21875.03125.21625.025.2175.015.2325.02375.21625.03.2175.02375.2175.0175.22.02625.22875.0275.2175.015.21875.02375.23.015.21625.015h.2325l.15.01125h.29625l.165.015h.15l.1625.015h.14875l.16375.01h.14875l.16375.01625h.1775l.15.0125h.32625l.14875.0125h1.46625l.15125-.0125h.14875l.16375-.0125.16375-.01625.14875-.01h.15l.15-.03.14875-.01125.23125-.015.205-.025.2175-.02875.215-.0125.205-.03125.2175-.0275.2175-.02375.20375-.03.2175-.03875.2175-.05625.21875-.04125.2025-.05125.2175-.06875.21625-.0675.20625-.08125.215-.0825.0975-.0275.08125-.03875.0675-.015.08125-.015.08125-.02625.0675-.015h.0825l.06625-.01125.08375-.0125.08.0125.06875.01125h.0675l.08125.03.0825.02625.0675.0275.0825.05375.10875.0825.08.12.06875.16625.05625.16.05125.16375.06875.14875.09375.09875.1375.065.15.03.14875.02375.15.03.1625.0125.15.02625.1625.015h.165l.14875.01375.16125.0125.15125.015h.8025l.14875-.015h.16375l.16375-.0125h.3225l.15125-.01375h.16375l.16375-.015h.475l.165-.0125h.6225l.15.0125h.1625l.16375.015h.1625l.16375.01375h.15125l.14875.0125.1625.015h.43625l.14875.0125h.13625l.16375.01125h.13375l.15.015.13625.015.135.0125h.14875l.15125.01375.1375.015.13375.0125.14875.02875h.15l.15.025.15.01625.1375.025.14875.0275.1625.02875.15.0125.1475.02875.16375.025.16375.04125.0675.02625.0825.0425.09375.055.095.06625.08375.06875.09375.0925.095.0975.09375.095.09625.09625.08.0925.08125.095.07.095.0675.08375.05625.065.05375.06875.01.05375.08625.125.095.10875.09375.1075.09375.08125.10875.0825.12375.08125.1075.0675.12375.05375.12.0425.14.055.1475.0275.135.03875.15.0275.14875.02625.15.04125.16375.0125.0675.2075.08125.2.06875.19125.095.205.05375.205.0825.1875.08.205.06875.2175-.14875.0275-.13625-.015-.15-.03875-.14875-.06875-.135-.095-.125-.095-.1075-.1075-.1225-.125-.09625-.1225-.07875-.12125-.09625-.1375-.095-.14875-.095-.14875-.0975-.13625-.09375-.14625-.09375-.1525-.09625-.13375-.09375-.125-.10875-.1075-.11-.12125-.10875-.0975-.10875-.06625-.1225-.06875-.12125-.04125-.1775-.05375-.1625-.04125-.16375-.03875-.17625-.015-.17875-.0275h-.1625l-.1625-.01375-.175-.015-.165-.0125h-.17625l-.1625.0125-.16375.015h-.17625l-.1625.01375-.1775.0125-.1625.015-.17625.015-.1775.02625-.1625.0125-.17625.02875h-.16375l-.1775.0275-.175.02625-.17875.0125-.16125.015-.1775.01375-.17625.0125-.165.015h-.175l-.1775.0125h-.17625l-.16375-.0125h-.15l-.13625-.015h-.405l-.15-.0125h-.27375l-.1475-.01375h-.28625l-.13625-.015h-.14875l-.1375-.0125h-.15l-.13375-.0125h-.13625l-.14875-.01375-.15125-.015-.15-.0125-.135-.01375-.135-.015-.13625-.0125-.14875-.02625h-.1375l-.14875-.03-.1225-.0125-.14875-.02875-.13875-.025-.135-.02875-.135-.02625-.12125-.0425-.15125-.05125-.095-.11-.095-.13625-.0675-.13375-.0675-.1375-.09625-.13625-.095-.1075-.135-.05625-.11-.04125-.095-.0275-.10875-.01-.1225-.02875-.10875-.0125-.12-.01375H376.29l-.12375.01375-.10625.0125-.09625.0125-.10875.02625-.10625.0425-.0975.04125-.095.04125-.2025.1225-.2175.095-.21875.08-.2175.08375-.21625.05375-.2475.055-.215.05375-.23125.04-.2325.02625-.21625.0275-.24375.02625-.2325.015-.23.02625-.23.015-.23375.0125-.23.015-.1625.01375-.16375.01h-.625l-.14875-.01h-.15l-.165-.01375-.16125-.015-.16375-.0125-.14875-.015-.16375-.01375-.15-.0125-.165-.015-.16125-.02625-.15-.015-.1625-.025-.1475-.01375-.165-.0275-.15-.0125-.1625-.02875-.1625-.015-.15-.01-.1625-.02875-.14875-.015-.16375-.02625-.15-.015-.1625-.0125-.15-.01125h-.1625l-.14875-.015-.205-.015h-.17625l-.19125-.0125h-.20375l-.19-.01375h-.19l-.205-.0125h-.56875l-.205-.015h-.39375l-.19125-.0125h-1.37125l-.1925.0125h-.20125l-.19.015h-.19375l-.18875.0125-.19125.01375-.2025.0125-.1925.015-.17375.015-.205.02375-.19.015-.205.02625-.205.04375-.215.025-.19.04125-.20375.0275-.205.03875-.1925.04125-.2025.04125-.20375.0275-.19.03875-.20375.03125-.20375.04-.2025.02625-.205.0275-.19125.02625-.21625.0125-.05625-.23-.06625-.24375-.04-.24375-.05625-.25875-.04125-.245-.0525-.24375-.04125-.23-.04125-.23375z"/>
    <path fill="#d61f27" fill-rule="evenodd" d="m375.12187 534.12936.08125-.02625.0975-.0275.09375-.02625.095-.03.08-.02625.09875-.015h.0925l.095-.0125h.19l.095.0125.0825.015.0675.02625.0825.04125.08125.05375.05375.05375.11.2325.09375.23125.1075.215.10875.2075.12375.2175.1225.2025.12125.2175.13875.205-.09875-.02875-.105-.0425-.11-.02625-.11-.02875-.13625-.01-.12-.0125-.13625-.015h-.25875l-.1225.015-.12125.0125-.12375.02625-.12125.0125-.11.04125-.0925.04125-.11125.0425-.05375.02375-.0425.03-.05375.02625-.05125.02625-.07.0425-.05625.01375-.05375.0275-.05375.02625-.08125-.5025v-.505l.025-.48875.05625-.5v-.015z"/>
    <path fill="#ed2224" fill-rule="evenodd" d="m357.72313 538.76326.19125-.04125.19-.0375.17625-.04375.19125-.04125.19-.02625.19-.015.17625-.025.19125-.01375.1775-.015.1875-.0125h.17875l.17375-.0125.16375-.01375.17875-.015.1775-.02625.16125-.015.21875-.0275.23-.04125.20375-.02375.22-.015.21625-.0275.20375-.02875.21625-.0125.22-.04125.20125-.025.21875-.02875.20375-.015.2175-.02625.20375-.0275.21875-.01.2175-.03125.2025-.02375.2175-.0175.21875-.025.205-.01625.21375-.025.21875-.015.2025-.01125.21875-.015.2175-.025h.21875l.215-.02875h.21875l.23125-.0125.20375-.01375.2325-.015h.4325l.25875-.0125h.47625l.2325-.015.23125.015h.44875l.21625.0125h.43375l.205.015.2025.01375.205.0125h.19l.19.02875.18875.0125.1925.0125.17625.02625.1775.015.17625.025.1775.03125.175.01.14875.04125.17875.03125.1625.025.15.03875.16375.04375.15.025.1475.04125.15.0275.135.05625.15.02375.245.08375.24375.055.21875.04.2175.02625.2025.0125.1925-.0125.20125-.02625.17875-.0275.19-.05625.19-.06375.17625-.085.18875-.08.1925-.11.19-.11.205-.1325.21625-.13875.06875-.03875.08125-.04125.0825-.0275.07875-.02625.09625-.03.0825-.02375.095-.015.095-.015h.0825l.08125-.01125.09375.01125h.095l.0825.03.08.01125.0825.0275.08125.02625.12375.09875.06625.13375.06875.15125.04125.16125.05375.16375.05375.14875.09625.1075.12125.05625.15.02625.15.04375.1625.01.16375.0275.16375.02625.16125.015.17875.0125.16125.01375.1775.0275h.1625l.1775.015.175.01375h.34l.1775.0125.1775-.0125h.35375l.1775-.01375.17375-.015.165-.015.175-.0125.18-.01375.1625-.0275.1625-.02625.1625-.0125.1625-.04125.16125-.0275.165-.04125.15-.04125.16375-.03875.14875-.04.16375-.055.14875-.0275.16375-.04125.1475-.0275.165-.02625.1475-.015.15125-.0125h.1625l.15-.01375h.14875l.1525.01375h.16125l.15.0125.14875.015.14875.015.16375.02375.14875.03125.16375.025.135.0125.1625.04125.15125.02875.1625.04.15.02625.14875.04125.1625.04.15.02875.1625.05375.15125.0275.1625.03875.1625.04125.16375.04125.15.0275.135.04125.15125.095.1475.1225.1375.165.135.15875.10875.15375.10875.17375.0825.13875.08.1475.06875.12125.06875.11.055.095.055.09375.06625.07.05375.06875.07.05125.0525.04125.08.04125.08375.0275.09375.02875.11.025.11.02625.135.03.14875.0125.04.10625.055.11.05375.125.06875.1075.08125.125.06875.13375.09375.1225.08375.12125.1075.1225.08125.12375.09375.12.0975.095.09375.11.06875.1075.08125.08375.06875.08-.1375.02875-.1225-.01375-.15-.05625-.135-.08125-.1325-.095-.13875-.11-.10875-.1075-.1075-.10875-.11-.1075-.095-.1225-.095-.125-.09625-.11875-.0925-.1225-.08375-.13875-.095-.135-.095-.13625-.095-.1375-.10875-.10625-.10875-.1225-.1075-.11-.10875-.08-.12375-.09625-.12125-.05375-.15-.05375-.16375-.04125-.1625-.04125-.17625-.05375-.1775-.04125-.16375-.05375-.1775-.03875-.17375-.0425-.165-.05625-.19125-.04125-.16-.03875-.17875-.04125-.175-.04125-.1775-.0425-.16375-.02625-.17625-.03875-.1775-.0275-.175-.015-.16375-.03875h-.19125l-.1625-.02875h-.1625l-.17625-.0125h-.1775l-.16375.0125h-.17625l-.16375.02875-.175.015-.165.02375-.1625.0275-.16375.05375-.1625.04375-.1625.05375-.13625.05375-.1225.03875-.135.04125-.13875.0425-.1475.04125-.15.04125-.15125.025-.1475.02875-.16375.03875-.1625.015-.15.0275-.1625.01375-.15.025-.17625.01625-.14875.0125-.1625.015-.165.015h-.97875l-.16375-.015-.135-.015-.1625-.0125-.15-.01625-.15-.025-.1475-.01375-.15-.0275-.1375-.025-.135-.04375-.1225-.05375-.09625-.0925-.06625-.13875-.06875-.1375-.055-.14875-.06625-.12125-.0975-.11-.1325-.06625-.09625-.025-.10875-.01625h-.3125l-.11.01625-.09375.01-.10875.03-.11.02625-.10875.025-.10875.04125-.09375.04125-.10875.04125-.09625.05375-.095.04375-.095.0375-.205.12125-.20375.11-.17625.09625-.17625.095-.19.0825-.1775.06625-.17625.06875-.1775.0675-.17625.05375-.18875.05625-.17875.03875-.19125.04375-.21625.04-.2025.02625-.21875.025-.21875.02875-.1475.0125-.16375-.0125-.15125-.0125-.1475-.02625-.14875-.02875-.15-.0525-.135-.04375-.1625-.0675-.15-.05125-.15125-.07125-.1625-.06875-.1625-.0675-.16375-.06625-.16375-.08375-.175-.065-.1775-.08375-.17625-.0675-.19125-.06875-.20375-.06625-.2025-.06625-.205-.0575-.21625-.05375-.23375-.0425-.22875-.03875-.24625-.02875-.2575-.025-.25875-.01375h-.28375l-.28875.01375-.2975.025-.3125.02875-.325.05375-.19.04125-.19375.0275-.18875.02625-.20375.015-.19.02875-.2025.01-.205.0275-.20375.015-.2025.01375-.19.015-.21875.0125-.20375.01125-.19125.015-.21625.0125-.205.02625-.20375.015-.2025.0125-.21625.015-.19375.02875-.20375.0125-.20375.02625-.2175.0275-.18875.02875-.18875.04-.205.02875-.1925.05125-.20125.02875-.19125.05375-.19.05375-.1775.05375-.19.05625-.1775.06875-.15.05375-.1625.04125-.1775.03875-.175.04375-.19125.025-.20375.0275-.20375.03875-.22.02875-.21375.0125-.20375.02875-.2325.0275-.2175.04125-.2175.025-.21625.02875-.20625.03875-.2025.0425-.055-.2325-.0675-.28375-.06625-.27-.07-.315-.0675-.28375-.0675-.27375-.04125-.26875-.06875-.22125v-.0125z"/>
    <path fill="#ed2224" fill-rule="evenodd" d="m358.48488 542.69156.15125-.015.14875-.01125h.29875l.15-.0125h.29875l.15-.015.14875-.015h.1475l.1375-.01.15125-.01625.14875-.0275.135-.01375.1375-.0425.13375-.02375.2325-.07125.21625-.08.23125-.05375.23125-.08375.2175-.065.24625-.095.23125-.06875.23125-.08375.2275-.08.23375-.08.23125-.06875.22875-.05375.23375-.06875.2175-.05625.22875-.05375.2325-.05375.20375-.04125.245-.04125.23125-.025.23-.01375.245-.0125h.74625l.24375.0125.24625.01375.25875.0125.23125.0125h.245l.23125.015.23125.01375h.2175l.20375-.01375.175-.015.17875-.0125.175-.0125.16125-.02625.165-.03h.15l.17625-.01125.16375-.03h.3l.1625.015.17625.015.1775.02625.16125.04125.19125.05375.21625.06875.205.0925.19125.0975.17625.1075.17625.11.16375.135.1625.12125.1625.1225.1775.1225.1475.10875.18.1075.17375.1.19125.06375.19.05625.21625.03875h.39625l.19125-.01125.16375-.015.16125-.0275.15125-.02625.14875-.02625.1475-.0425.13625-.04125.13625-.05375.1225-.03875.1225-.04125.12625-.07125.11875-.05125.1225-.05625.1075-.06875.1225-.05375.10875-.05375.12375-.0825.1225-.05125.12-.07125.1225-.0675.10875-.06625.1375-.06875.13625-.065.12125-.05625.14875-.06625.1375-.07125.15125-.05375.16125-.05375.16375-.05375.1625-.05625.17625-.05375.10875-.02875.10875-.02375.12375-.05625.10625-.0425.10875-.05375.1225-.03875.10875-.05625.12375-.04125.10875-.02375.1075-.03.09625-.0125h.095l.095.0125.08.03.0825.0525.05625.08125.0925.17875.08.1875.09875.2075.09375.2025.1225.1875.15125.17875.18875.16125.20375.1225.18875.0825.19375.05625.17375.03875.17625.0275h.38125l.17875-.0275.2025-.03875.21875-.04125.215-.07125.23375-.05125.2425-.05625.2725-.06875.2975-.065.315-.06875.33875-.06875.2325-.03875.20375-.04375.2025-.05375.20375-.04125.17875-.04.17375-.04125.17875-.03875.1625-.04125.15-.03875.135-.03.16375-.04125.13625-.0275.135-.04125.1225-.02625.1375-.015.12125-.02375.12-.0275.125-.015.135-.01375.1075-.0125h.38375l.12.0125.1225.01375.1375.015.135.0275.14875.02375.13625.04125.1475.0275.16625.04125.1625.05625.20375.06625.175.0675.17875.06875.17625.06875.1775.0675.1625.08125.14875.0675.15125.06875.14875.06625.15.06875.14875.0675.15125.08375.13375.065.14875.06875.1375.07125.15.065.09375.05375.08125.05375.0825.08375.0825.06875.08125.0925.08125.0975.08.08.08375.08375.08.095.08375.08.09375.06875.09625.05375.0925.02875.095.025h.12375l.10875-.0125.1225.1075.1225.1225.12125.11.12375.095.1225.11.11875.0925.125.095.1375.0975.13375.0925.12375.09625.14875.08.13625.0975.14875.0925.1225.07125.15.0825.15.07875-.12125.02625-.125.0125-.12125.015-.1075.015h-.2325l-.10875-.015-.10875-.015-.09625-.0125-.0925-.01125-.09875-.0275-.10625-.02875-.095-.0275-.095-.04125-.0825-.02375-.095-.0425-.14875-.0825-.15-.08-.16375-.09625-.1625-.0925-.17625-.1125-.17875-.1075-.17625-.12125-.175-.095-.1775-.1225-.19-.11-.18875-.095-.19125-.1225-.19125-.095-.1925-.095-.20125-.08125-.205-.08-.16125-.04125-.1775-.05375-.17625-.03-.16375-.02625-.18875-.015-.16375-.0125h-.35375l-.17625.0125-.17875.015-.19.02625-.17625.03-.175.02625-.19125.0275-.1775.04125-.19.05375-.20375.03875-.1925.05625-.1875.04125-.19.04125-.20625.05125-.18875.05625-.2175.05375-.20375.05375-.20375.06875-.20375.05375-.21625.04125-.22125.05375-.21625.05625-.215.03875-.23375.0425-.21625.0525-.35375.0425-.33875.08-.3125.06875-.3125.08-.28625.06875-.28625.06875-.26875.0675-.26125.06875-.24375.04125-.24625.04125-.23125.025-.2275.015-.22125-.015-.2025-.015-.20375-.03875-.20375-.06875-.11-.05375-.05375-.0675v-.08375l.0275-.08.0825-.095.08125-.09375.1225-.10875.1225-.11.12125-.1075.13625-.11.1375-.1225.10625-.12.08125-.11125.06875-.12.0275-.125-.0125-.1075-.02875-.095-.07875-.08-.08375-.06875-.10875-.05625-.1225-.03875-.13375-.04125-.1525-.0275-.15-.015-.1625-.01125h-.3125l-.1475.01125h-.15l-.15.03-.12375.0125-.1075.02625-.17625.05375-.1775.05625-.175.05375-.17875.06625-.17625.0825-.16375.08125-.17625.0975-.1625.08-.1625.1075-.165.0975-.16375.08125-.17375.11-.1625.0925-.165.11-.1625.095-.16375.11-.1625.08-.1625.095-.16375.11-.1775.0925-.16375.08375-.1625.08-.17625.08375-.1775.0675-.1625.06625-.17625.05625-.1775.05125-.175.05625-.17875.0275-.1875.02625-.19125.02625h-.40875l-.2175-.0525-.20375-.06625-.19-.11-.2025-.11-.19-.13375-.17875-.1525-.19125-.1625-.18875-.15-.17875-.175-.19-.14875-.18875-.14875-.19125-.1375-.20375-.12375-.2025-.09625-.21875-.08-.17625-.03875-.1625-.04125-.15-.015-.13625-.015h-.15l-.12.015h-.13875l-.12.02625-.12375.015-.135.02625-.1375.015-.135.0275-.15.02625h-.1625l-.1775.015h-.65125l-.23125-.015-.26-.02625-.2575-.0275-.25625-.02625-.25875-.04125-.2725-.03-.25875-.02625-.27-.0125-.2475-.015-.2575-.0125h-.24375l-.24625.0125-.23.0275-.2175.04125-.2025.05625-.2325.08-.215.06875-.21875.08-.21875.08375-.2175.095-.21625.0925-.23125.095-.21625.11-.22.095-.2175.09625-.21625.095-.2175.08-.23125.085-.21625.06375-.22.06875-.13625.04375-.135.025-.135.04125-.15.015-.13625.01125-.14875.0125h-.15l-.15125.015-.1475.01625h-.585l-.14875-.01625h-.27125l-.34125-2.0925z"/>
    <path fill="#33479d" fill-rule="evenodd" d="m361.73313 521.64166.14875.31.16375.3125.135.3125.15125.3125.15.3125.12125.315.14875.3125.15125.3125.135.2975.15.3125.15.30125.1625.2975.16375.285.17625.29875.19.2725.18875.28375.06875.02625.09625-.05125.10875-.12375.10875-.16375.095-.13625.0825-.12.06625-.04125.055.04125.16375.47375.095.5025.0675.515.055.505.05375.50125.055.5175.10875.49125.135.475.0825.17625.095.17875.10875.19.11.16125.12125.175.12125.16375.1375.16625.135.16125.135.16375.13625.16375.12375.14625.135.17875.13625.1625.10875.17625.10875.16375.10875.175.02625.06875.0275.05625.0275.06875.04.05375.01375.05375.04.0675.03.05375.02625.05375h-.42375l-.065-.01125h-.355l-.06625-.015h-.22l-.12125-.16125-.135-.15125-.13625-.16375-.13625-.14875-.14875-.16375-.12125-.14875-.13875-.16125-.14875-.16375-.13625-.16375-.135-.15125-.1375-.16125-.12125-.1775-.13625-.17375-.1075-.16625-.1225-.175-.10875-.19125-.1225-.27375-.09625-.3125-.05375-.295-.05625-.315-.0525-.3275-.055-.2975-.095-.3125-.10875-.3-.08-.11-.08375-.105-.09375-.0975-.09625-.095-.09375-.095-.10875-.08375-.11125-.09-.0925-.0975-.11-.08125-.10875-.0975-.1075-.08-.09625-.095-.095-.09375-.0825-.0975-.06625-.1075-.0675-.12125-.16375-.3275-.15-.34-.14875-.32625-.12375-.35375-.13625-.325-.135-.35125-.1225-.3575-.1075-.35125-.12375-.33875-.1075-.355-.1225-.33875-.1075-.35375-.125-.34-.1075-.35125-.12375-.34125-.12-.34.08.03875.0825.0425.08125.055.0825.04.0925.04125.0825.05375.0825.03875.09375.04125.08125.05375.08375.03.08.03875.09625.04125.0825.04125.08125.0425.0925.03875.08375.04375h-.015zm-5.16476-1.499.01375.1925v.59875l.015.2025.0125.205.03875.17625.06875.175.07125.1375.065.15125.09625.11875.08125.1225.0825.125.09375.12125.0825.1075.095.1225.09375.11.08125.12.09625.11125.095.1225.06875.1225.08.11875.0825.1375.0675.13625.0975.2325.06625.24375.04125.25875.02625.27125.02875.25875.06625.25875.0825.24375.12125.2325.10875.08.11-.04125.08125-.13625.08-.1475.0825-.14875.0675-.0975.0825.015.095.14875.16375.435.1625.44625.1625.44875.13625.45.14875.435.1375.44875.13625.46125.12125.46125.10875.45125.12375.46.09375.46375.09625.46125.09375.46125.0825.47625.0675.46125.0675.46375h-.475l-.08125-.015-.06875-.01375-.08125-.23-.0825-.23125-.08125-.2325-.0675-.24375-.08-.23-.095-.24375-.0675-.24625-.08125-.23-.08375-.24375-.08125-.2475-.08125-.23125-.0825-.2425-.08125-.23125-.0675-.24375-.08125-.2325-.0825-.23125-.0675-.2325-.04125-.24125-.03875-.245-.0425-.25875-.06875-.23125-.0825-.2175-.11875-.19-.165-.16375-.095-.0275-.09625.08125-.095.15125-.095.1725-.09375.17875-.0825.13375-.095.05875-.08-.04125-.12375-.1775-.09625-.16125-.09375-.19125-.08125-.1925-.0675-.2025-.07-.19-.0675-.20625-.055-.21375-.05375-.205-.055-.20625-.04-.21625-.055-.205-.055-.20375-.0525-.2025-.0825-.2025-.08125-.19-.05125-.13625-.07125-.1375-.0675-.14875-.06875-.1225-.08125-.12125-.0675-.1375-.095-.13625-.0675-.12-.0825-.12375-.08-.1375-.0825-.13375-.08125-.1225-.06875-.13375-.06625-.14-.05625-.13375-.055-.13625-.08-.3125-.05625-.28625-.01375-.3125v-.91l-.02625-.3125-.06625-.3125.0925.01125.0975.03.08125.0125.06875.01375.06625.015.06875.0125h.06875l.06625.01375.07.0125h.18875l.0825.0125h.2025z"/>
    <path fill="#c4cbcb" d="m360.17225 525.21316-.3825-.095.3825.35375v.42125l.2425-.23125.40875.3125-.25875-.475.2325-.2025-.3825-.055-.27125-.49.02875.46125z"/>
    <path fill="#ecf3f3" d="m362.63037 525.55286-.35375-.05375.35375.3275.02875.41875.24375-.2425.3525.33875-.24375-.44875.2025-.23125-.37875-.0675-.245-.42125.04.38z"/>
    <path fill="#c4cbcb" d="m364.87362 525.89266-.32625-.0275.35375.28875.02625.3925.1775-.205.3525.2975-.20375-.42.17625-.24375-.325-.0275-.25875-.42125.0275.36625z"/>
    <path fill="#ecf3f3" d="m366.96612 526.22006-.285-.0425.3125.3125.0275.38125.19-.2325.33875.30125-.25625-.4225.2025-.2-.3125-.07125-.2425-.38125.025.355zm-9.44775-1.4265-.405-.06875.38.355.025.44625.27375-.23.435.32375-.29875-.475.29875-.24375-.435-.06875-.27375-.4775v.43875z"/>
    <path fill="#c4cbcb" d="m358.42963 523.52906-.38125-.05625.38125.3125v.46375-.015l.25875-.21625.39375.33875-.23-.50375.23-.2025-.39375-.09375-.25875-.44875v.42125z"/>
    <path fill="#ecf3f3" d="m361.06775 524.10056-.39375-.05625.39375.31125.02875.4375v-.01375l.2025-.2025.4225.295-.27125-.44375.2025-.2475-.35375-.055-.23125-.42v.395z"/>
    <path fill="#c4cbcb" d="m363.392 524.49316-.355-.06625.355.325.06875.42.17625-.24375.35375.33875-.24375-.46125.20125-.23-.3375-.02875-.21875-.44625v.3925z"/>
    <path fill="#ecf3f3" d="m367.496 525.14456-.285-.065.32625.3125.0125.35125.1925-.2175.31125.3-.23-.38.14875-.2025-.29875-.07125-.2025-.37875.025.35125z"/>
    <path fill="#c4cbcb" d="m365.55312 524.87116-.3-.06625.355.3125.02625.38125.18875-.2025.34125.29875-.25625-.42375.17375-.2175-.32375-.05375-.205-.38v.35125z"/>
    <path fill="#ecf3f3" d="m356.012 523.39176-.43375-.06875.43375.355-.02625.43375.2825-.2175.44875.355-.27-.515.31375-.2325-.4925-.05625-.22875-.4875-.0275.43375zm-.04125.7325h.01375l.00125-.0125-.015.0125z"/>
    <path fill="#c4cbcb" d="m360.8225 527.59136-.38125-.0675.38125.37875v.4375l.24375-.2725.43625.3275-.29875-.46375.24625-.245-.38375-.06625-.24375-.475v.44625z"/>
    <path fill="#ecf3f3" d="m363.2705 527.90416-.34125-.06625.36875.325.04.44875.2025-.27125.38125.34-.23125-.48875.2175-.23375-.395-.02625-.2425-.49v.4625z"/>
    <path fill="#c4cbcb" d="m365.58125 528.13586-.355-.0275.355.31.0525.425.19-.23375.34.3-.23125-.45.17875-.2675-.31125-.02875-.24625-.42125.0275.39375z"/>
    <path fill="#ecf3f3" d="m367.67262 528.39466-.2975-.05375.3375.34.03.36125.175-.22625.355.29875-.2725-.4075.17375-.245-.3125-.0675-.21625-.38125.0275.38125zm.055.66625h.01625l-.00125-.01875-.015.01875zm-9.59725-1.79685-.4075-.02375.4075.35125v.47625l.275-.27375.4475.34125-.27375-.49.27375-.25625-.4475-.05625-.275-.515v.44625zm1.00913-1.2229-.41-.065.41.365v.44875l.27125-.2425.42125.3225-.27125-.475.23-.25625-.40875-.06875-.21625-.475-.02625.44625zm2.58075.3544-.39375-.05375.39375.325.0275.43625.23-.23125.38.34-.2575-.48875.205-.27125-.395-.03-.23-.4475.04.42125zm.0125.7225h.01625l-.00125-.015-.015.015zm2.33987-.4222-.34-.03.34.30125.02625.44625.21875-.24125.38.32375-.27125-.46125.2025-.24375-.34125-.0275-.24375-.44625.02875.37875zm4.19963.6109-.3-.0425.3275.30125.05375.39125.15-.215.325.27125-.2325-.42125.18-.23125-.32875-.0275-.23-.43625.055.41z"/>
    <path fill="#c4cbcb" d="m366.25962 526.99286-.32625-.02625.355.2975.04.4225v-.0125l.17625-.19.355.2825-.23375-.43375.16375-.25625-.35375-.03-.20375-.43125.0275.3775z"/>
    <path fill="#ecf3f3" d="m356.48675 525.79706-.4475-.05375.4475.35375v.48875-.0125l.27375-.25625.43375.34875-.27125-.5125.29875-.26125-.46125-.06625-.24625-.5025-.0275.47375z"/>
    <path fill="#c4cbcb" d="m361.47612 530.10576-.38-.0275.38.3275.02625.47625.245-.27375.4075.3-.2725-.475.245-.3h-.38l-.27125-.50125v.47375z"/>
    <path fill="#ecf3f3" d="m363.9905 530.28236-.37875-.02625.37875.325.0275.47375.2025-.255.3825.28625-.235-.47625.205-.2875h-.37875l-.245-.4875.04125.4475z"/>
    <path fill="#c4cbcb" d="m366.28775 530.46016-.355-.0275.355.34.0675.4075.1775-.24375.38.3125-.285-.45.19-.2975h-.355l-.20375-.49125.02875.45z"/>
    <path fill="#ecf3f3" d="M368.39487 530.60866h-.30125l.32875.2975.0525.43875v-.01625l.15-.24125.3825.2825-.27375-.46375.1775-.24375-.31375-.02625-.245-.4075.0425.38zm-9.63787-.7054-.4075-.0275.4075.3525v.47625l.29875-.27125.435.34-.285-.515.2575-.3025-.435-.025-.2425-.50375-.02875.47625zm1.03275-1.3725-.4075-.04375.4075.35625v.48875l.24625-.27125.4475.3275-.31125-.52.26875-.25625-.405-.03-.24625-.515v.46375zm2.57063.2835-.38125-.05375.4075.325v.47875-.0125l.24375-.26125.3825.34-.27375-.47375.245-.28875-.39375-.05375-.23-.47375v.47375zm2.39175.2205-.355-.0425.38125.29875.02625.44875.19-.23375.37.3025-.26-.45.2175-.2725-.3525-.025-.24375-.44875.02625.4225zm4.22662.4174-.3-.0225.3275.28625.05375.41625.16375-.22875.35.255-.26875-.4175.13625-.2325-.28875-.05625-.24125-.39.0675.39z"/>
    <path fill="#c4cbcb" d="m366.94138 529.26316-.31375-.01375.33875.285.055.4225.19-.24125.33875.29625-.25625-.44625.17625-.27375-.315-.02875-.21375-.44875v.44875z"/>
    <path fill="#ecf3f3" d="m357.11338 528.53186-.49-.0725.49.38375v.50125l.25875-.2825.4325.32625-.2575-.52125.28625-.285-.43625-.02625-.25625-.515-.0275.49125zm-.01375.82625h.01375v-.01375l-.01375.01375z"/>
    <path fill="#c4cbcb" d="m359.28912 522.63016-.38125-.08.4075.35375v.42l.245-.2175.3775.33875-.255-.4875.23-.2025-.39375-.05625-.23-.48875v.42z"/>
    <path fill="#ecf3f3" d="m361.979 523.35236-.35375-.05375.35375.28375.02875.435v-.015l.2-.2175.3825.315-.25625-.4225.2275-.23125-.38-.05375-.2025-.46375v.42375z"/>
    <path fill="#c4cbcb" d="m364.22 523.73486-.3525-.05625.3525.33875.0275.38125v-.0125l.21875-.20625.3375.31375-.23-.4225.1775-.21875-.35375-.0675-.20375-.39375.02625.34375z"/>
    <path fill="#ecf3f3" d="m366.35412 524.04426-.34-.06875.36875.3.0275.3925.14875-.21625.35375.2725-.2325-.39375.1775-.20625-.325-.05375-.205-.41875.02625.3925zm-9.432-1.6447-.40875-.095.38125.35625v.445l.25875-.24.4225.33625-.2325-.4475.2575-.245-.4475-.05375-.23125-.475v.41875zm3.519 8.7142h-.4325l.4325.34125v.51375-.0125l.26125-.3275.41875.3675-.27125-.5175.24625-.29875-.4225-.0275-.25875-.5175.02625.47875zm2.66625.2835h-.395l.395.3125.02625.47125.205-.28.40625.3225-.2575-.51375.2025-.25625-.39125-.02875-.22125-.48875.03.46125zm.01375.80125h.01375l-.00125-.0175-.0125.0175zm2.36338-.66395-.34-.015.34.3125.06875.47625.205-.28625.35125.28625-.2275-.47625.20125-.27125-.38125-.02625-.245-.4475.0275.4475zm4.17262.2981h-.2975l.325.31125.0675.40875.135-.27125.35625.2975-.2325-.435.12125-.2425-.28375-.02875-.24625-.41875.055.37875z"/>
    <path fill="#c4cbcb" d="m367.71425 531.87316-.33875-.04125.33875.34.08125.44875.15-.27375.35375.27375-.245-.44875.19-.27125-.325-.0275-.24625-.44875.04125.44875z"/>
    <path fill="#ecf3f3" d="m357.425 531.42206-.43375-.025.43375.3375v.5475l.2975-.31375.45125.33875-.30125-.52875.30125-.325h-.45125l-.25625-.54625-.04125.515z"/>
    <path fill="#c4cbcb" d="m357.929 521.13616-.41-.05375.41.35125v.395l.2425-.21625.40875.33875-.27125-.46.27125-.1925-.40875-.09625-.2425-.44625v.38z"/>
    <path fill="#ecf3f3" d="m360.41525 521.92256-.365-.06625.39125.3275v.36625l.205-.17625.42.325-.24375-.46125.2175-.205-.39375-.05125-.23125-.46375v.405z"/>
    <path fill="#c4cbcb" d="m362.90262 522.65936-.355-.0825.3825.3275v.38l.20375-.205.35375.3125-.2325-.43375.205-.17875-.3525-.08125-.245-.3925.04.35375zm.01375.6375h.01375v-.0125l-.01375.0125z"/>
    <path fill="#ecf3f3" d="m366.7085 522.86416-.2975-.02875.2975.27125.055.36625v-.0125l.1775-.16375.2975.25875-.245-.3925.19-.18125-.29875-.05375-.20375-.37875.0275.315z"/>
    <path fill="#c4cbcb" d="m364.90062 522.90356-.3275-.03875.355.2975.04.3525.17625-.19.34.29875-.2575-.395.20375-.2025-.32625-.06875-.23-.38125.02625.3275zm.05375.625h.015l-.00125-.01375-.01375.01375z"/>
    <path fill="#ecf3f3" d="m355.50687 520.81106-.46-.0825.43375.355v.4075l.27375-.19.40625.3525-.23125-.4875.25875-.205-.42-.09625-.2325-.475-.02875.42125z"/>
    <path fill="#d61f27" d="m369.6425 522.47156-.0525.09125-.05375.15125-.055.19-.04125.21625-.0275.2025v.17875l.5725-.1625-.0675-.14875-.055-.11-.0275-.0975-.0275-.0675-.02625-.06625-.01625-.06875-.02625-.09375-.02375-.13625-.03-.095-.0425.01625z"/>
    <path fill="#d61f27" fill-rule="evenodd" d="M358.83887 544.74466h.23125l.1075.0125.1225.0125.11.01375.1225.015h.12125l.10875.025h.21625l.1225.01625h.11125l.12125-.01625h.1075l.095-.025.11-.015.27125-.08.26-.08375.25625-.08.2575-.11.26-.1075.25625-.095.26-.1225.2575-.095.25875-.12375.25625-.1075.26-.1075.26125-.0975.26875-.09375.2575-.095.28625-.0825.2725-.08125v-.38l-.01125-.47625-.015-.515-.04125-.53-.1225.0125-.135.02625-.16375.04125-.15.0275-.1775.04125-.1625.03875-.19.04125-.20375.05625-.2025.05375-.205.06875-.2325.06875-.23.065-.24625.08375-.24375.095-.2575.095-.25875.1075-.1775.05375-.18875.05375-.165.05625-.175.04125-.16375.04125-.17625.04-.1625.02625-.17625.0275-.1925.02875-.18875.0125h-.20375l-.2175.02875h-.2325l-.23125.0125h-.51625l.055.25625.05375.26125.05625.26875.0525.24625.0575.25875.0525.25875.04125.25625.05375.27375h-.01375z"/>
    <path fill="#d61f27" d="m365.37763 534.84766.03875.1775.02875.17875.04.16125.0275.15125.0275.14875.02625.13375.015.125v.2875l-.015.07875h.66625v-.3l-.01375-.29875-.0425-.2975-.065-.3-.03-.1075-.025-.0975-.0425-.06625-.02375-.08-.64-.06875.0275.17375z"/>
    <path fill="#d61f27" fill-rule="evenodd" d="M366.2595 539.63236v-.27125l-.02625-.15125-.04125-.105-.04-.16625-.07-.14875-.0925-.14875-.09625-.14875-.11-.16375-.1075-.13625-.095-.16375-.09625-.14875.89875-.06625.05375.215.08125.205.095.19.095.2025.095.19125.09625.1925.09375.1875.09625.2025.04125.0425.025.05375.0275.0675.02875.0425-.9525.02625zm-.26975 3.5889.01125-.28625-.01125-.3125.01125-.285.08125-.27125.02875-.095.04125-.11.04-.0925.04-.11.055-.07875.04125-.1.02625-.1075.0275-.095 1.76875.0425.03875.285.08125.25625.09375.27375.11.25625.11.27375.09375.25625.10875.27375.07.25625h-.545l-.19125-.0125-.1625-.0125-.17625-.015-.19125-.02625h-.175l-.1775-.0275-.17625-.02625-.1775-.015-.17625-.015-.175-.02625-.17875-.015-.19-.0125-.175-.02625zm4.18475-5.3834.16375.14875.1225.18125.12125.14875.12375.175.08.16375.0825.19125.055.175.04.18875v.0825l.01125.095-.01125.095v.09625l.88375.35375-.03-.11-.02375-.13625-.02875-.1075-.0125-.1225.0125-.19.02875-.17625.05375-.19.0675-.19125.055-.19.06875-.19.0525-.17875.04-.1875-1.9425-.125h-.01375zm-1.72625-2.9906.08.235.0975.21625.06875.2175.0825.2025.08.2175.095.22.08125.1875.09375.2175.16625.0275.1475.01375.17625.0275.14875.015.16375.01125.16125.015h.1775l.16375.015h.31375l.14875.01h.49l.15.01375h.1625l-.15-.12125-.15-.12-.1625-.11-.1775-.11-.17625-.0925-.175-.095-.18-.1125-.1875-.0925-.1775-.09625-.1625-.10875-.16375-.1075-.1625-.1075-.13625-.1375-.15-.13625-.10875-.15125-.09375-.16375h-.735zm1.94462 6.3354-.055.1225-.055.11-.05375.13375-.04125.11-.05625.11-.04.1175-.025.11125-.0275.1225-.0275.2975-.0275.315v.6375l.1225-.0125.1225-.01375h.1225l.12125-.0125.1225-.015h.3675l.04125-.2175.0525-.24375.05625-.2325.06875-.25875.08-.22875.09625-.2325.08125-.2175.1075-.1875-1.14-.3-.01375-.015zm-.55787-16.1596.05375.2325.04.22875.01375.205.04125.2175.02875.2175.04.2025.07875.22.11125.2175.1225-.03.10875-.0125.10875-.02625h.11l.09375-.015.10875-.015h.095l.09625-.01125.11.01125h.10625l.095.015.1075.015h.11l.12125.02625.12375.0125.13625.03-.1075-.11-.0825-.1075-.095-.11-.08125-.11-.08375-.095-.08125-.1075-.08125-.1075-.08125-.11-.08125-.095-.0825-.11-.06625-.1075-.0825-.11-.0675-.0925-.0675-.1075-.06875-.125-.0675-.1075-.87-.02875h-.01375zm1.9165 3.3716.095.11.095.13375.1225.17625.12375.17875.12.1875.1225.2075.095.14625.0825.14875.1075-.02625.10875-.025.1225-.02875.1225-.03.11-.02125.12125-.03h.12375l.1075-.01375.1225.01375.1225.0125.10875.03125.1225.05.11.0675.1075.08375.10875.11125.1075.1325-.0825-.0925-.0925-.11-.09625-.125-.0825-.1175-.095-.12375-.09375-.125-.09375-.13625-.0825-.135-.09625-.13625-.08125-.1075-.08125-.12125-.07-.11-.05375-.09625-.0525-.08-.05625-.06875-.0275-.05375-.07875-.01375-.0825-.0125h-.09625l-.08125-.015-.095.015h-.09625l-.09375.0125-.08125.01375-.095.0125-.09625.015-.11.0125-.0925.02875-.08125.0125-.09625.0125-.08125.01375-.095.015z"/>
    <path fill="#010101" fill-rule="evenodd" d="m380.532 544.71536-1.06125-1.84875.10875-.04125.12375-.02375.135-.03.15-.02625.15125-.0275.1475-.01125h.135l.16375-.015.15.015h.135l.1375.02625.13375.0275.12375.05375.1075.0525.10875.06875.08125.06875.06875.13625.04125.12-.0125.125-.04125.12125-.0675.1225-.0975.11-.10625.1075-.1375.11-.135.1075-.1225.095-.1225.11-.10875.08-.095.1075-.06875.0825-.02625.09625v.08z"/>
    <path fill="#d61f27" fill-rule="evenodd" d="m378.01737 541.31936.04125.24375.04.245.04125.25875.03875.24375.0425.25875.04.25625.055.24375.05375.27375.19-.095.1775-.08.1775-.09875.18875-.0925.19-.06875.19125-.0675.19-.05375.19125-.05375.20375-.0275.18875-.01375h.20625l.21625.01375.2175.05375.2175.06625.20375.095.24375.1225-.10875-.135-.09375-.13625-.10875-.12-.09375-.13875-.095-.1225-.09875-.12125-.09375-.1225-.08125-.1225-.09375-.12125-.0975-.1225-.095-.1225-.08125-.13625-.0825-.1225-.08125-.13375-.08-.13875-.0975-.14875-.04-.09625-.0525-.0675-.0975-.025-.09375-.02875-.13625.01375-.12125.0275-.14875.02875-.15.05125-.1625.05625-.16375.06625-.14875.05625-.17875.06625-.1625.05625-.135.05625-.13875.05125-.13375.02875zm-1.7115-3.291.07875.095.09625.08375.09625.095.08.095.0825.095.08.08125.08375.10875.08125.08125.08125.095.08.095.07.095.0675.09625.06875.1075.0675.10875.05375.1075.04125.11.095-.05375.12125-.04125.09625-.04125.135-.04125.10875-.025.1225-.02625.1225-.03.1225-.0125h.34l.09375.0275.0825.02625.0825.0275.055.05375.0525.04125-.1075-.205-.1075-.215-.0975-.205-.095-.2175-.095-.2175-.095-.21625-.10875-.22-.09625-.2025-.0825-.1075-.08125-.08375-.1075-.04125-.10875-.03875-.12125-.0275h-.1375l-.13375.0125-.1225.03-.15125.03875-.15.02625-.1475.06875-.15.05375-.13625.06875-.135.0825-.15.07875-.12125.0825zm-4.20037-12.7856.06625.19.05625.18875.05375.19.08.19.0825.17625.08125.1925.095.18875.12375.16375.04.05625.04.0525.0525.04.07.05375.05625.04125.0525.04125.055.03875.055.03 1.65875.4875-.01375-.08-.04375-.07125-.03875-.065-.0425-.05125-.06625-.1125-.09625-.095-.08125-.09625-.09375-.08-.11125-.08125-.10625-.0675-.11-.06875-.11-.06875-.10625-.0675-.1225-.06875-.12375-.06875-.1075-.065-.11-.08375-.09375-.06625-.11-.0675-.08125-.0975-.08-.06625-.08-.08125-.07125-.0825-.0675-.0825-.0825-.09375-.0675-.0825-.0675-.08-.0675-.08125-.36625-.14875zm.09275-3.3594.11.015.09625.02375.1075.03.10875.01375.095.015.10875.0125.09375.02625.10875.0125.0975.015.10625.015.11.01125.095.015.095.0125.10875.0125.1075.01375.11.015.05375.25625.0575.27375.0525.25625.04125.27375.055.285.0525.27375.05625.25625.0675.25875-.09625-.02625h-.17625l-.09375-.015h-.64l-.095-.0125-.09375-.015h-.0825l-.08-.02625-.0825-.0275-.09625-.285-.0825-.28625-.0675-.285-.08125-.2975-.0825-.27375-.08125-.28625-.08125-.2825-.0825-.27375zm3.69875 4.3628.135.08.1225.09625.12375.095.135.0675.135.09625.15.0825.13625.0825.135.09375.13625.0675.13625.09625.13625.08.13625.0975.13375.08125.1375.08.1225.08.13625.09875-.0675.02375-.0825.015-.09625.02625-.0675.015-.0825.0125-.0925.02875-.07.01-.0925.015-.0825.01625-.0825.01h-.0825l-.09375.015-.0825.0175h-.08125l-.08.01125h-.08125l-.05625-.11125-.0525-.09375-.04125-.095-.055-.0825-.0675-.0925-.0675-.08125-.06875-.0825-.0825-.08125-.1075-.11-.15-.11-.13625-.0925-.15-.0825-.13375-.095-.16375-.08125-.14875-.08-.165-.07125-.1625-.06875-.15125-.08-.14625-.06875-.1625-.0675-.15-.08125-.1525-.08-.135-.08375-.135-.0925.67875.12 1.3325.35375zm3.62913 2.8394.08125.16375.09625.1775.065.17625.08375.17875.08.1875.05625.17875.06875.175.0525.205-1.535.05375-.06875-.095-.08125-.095-.06875-.08125-.095-.0825-.0675-.08-.0825-.08125-.08125-.0975-.08125-.08-.08125-.08125-.0825-.0825-.08125-.0925-.08-.08125-.0675-.0825-.07-.08125-.0675-.0975-.0825-.095h.95375l.135-.015h.15l.13375-.0125.13875-.01125h.13375l.1375-.015.135-.015.1375-.02625.135-.015zm.76049 3.0858-.0275.095-.04.1225-.04.11-.02875.1075-.01125.095-.01625.11v.095l.0275.095.04.095.05625.095.025.1225.05625.11-.08125.0125h-.1775l-.08.01375-.0825.0125h-.16375l-.08125.0125h-.08125l-.06875.015h-.08125l-.08125.01375h-.06875l-.08125.0275h-.0675l-.08125.015v-.3275l.0125-.325.03-.3275.01125-.3125 1.1825-.0825z"/>
    <path fill="#d61f27" d="m381.63275 532.02276-.08.015-.0725.0125h-.16l-.0675.0125h-.09375l-.07125.01375-.0125.12125-.0125.12375.0125.12375.0125.13375.0275.09625.0275.12375.04125.095.03875.09375.055.10875.0425.09625.05375.1075.03875.095.0675.01375h.0725l.05125.015h.3675l-.04125-.2475-.04-.23125-.04-.23-.055-.22875-.0125-.12375-.03-.1225-.025-.1075-.02625-.12625-.06875.01625z"/>
    <path fill="#d61f27" fill-rule="evenodd" d="m382.95138 535.27206.01375.05125.02625.05625.02625.05625.02875.03875.04.19.0425.2175.04.19125.04.2025.04125.205.04.215.0425.21875.0675.20625h-1.4975l-.215-.015h-.2175l-.2175-.0125-.205-.015h-.205l-.215-.01375-.205-.0125-.205-.0275-.1875-.02625-.08125-.205-.07-.2175-.08125-.2175-.0825-.2175-.0675-.2175-.0825-.21625-.05375-.22-.0675-.215h.6375l.22-.015h.44625l.2175-.01375h.43625l.23-.0125h.21875l.2175.0125h.435l.23125.01375.2175.015zm-2.31075 3.5596.12125.015h.49l.12125.01125h.10875l.1225-.01125h.36625l.12375-.015.135-.015h.23125l.13625-.02625v.38l.0125.39375.03.38375.0125.3775-.10875.0125-.09625.03-.1075.01375h-.09625l-.10875.015h-.20375l-.11-.015-.08-.0975-.0675-.08-.06875-.1075-.08125-.0975-.06875-.09375-.08125-.0975-.06625-.0925-.0825-.11-.0825-.08-.06625-.095-.0675-.09625-.08125-.1075-.055-.0975-.0825-.1075-.0675-.095-.08125-.095z"/>
    <path fill="#d61f27" d="m383.95813 538.54556-.055.0125h-.05375l-.055.015-.05375.015-.0575.01125h-.05125l-.05625.015.09625.36625.05375.38125v.38l-.0425.39625.11125-.015.12125-.02625.0975-.03.12-.02625.10875-.025.10875-.04125.12375-.04125.095-.05625-.06875-.17375-.0675-.16375-.06625-.16375-.07-.1775-.07-.17625-.08125-.14875-.0675-.18-.065-.15875-.055.01125z"/>
    <path fill="#d61f27" fill-rule="evenodd" d="M375.37938 522.68656h.37l.12125-.015.12125-.01125.12375-.015.12125-.015.1225-.02625.12125-.0275.1375-.02625.12125-.04.1225-.02875.1225-.04125.12125-.0275.1225-.03875.1075-.04125.12375-.04125.11-.05375.12125-.04375.12125-.025.12375-.04125.135-.0275.1225-.02625.12375-.0275.135-.02625.135-.0275h.12125l.13875-.01125.135-.015h.25875l.135.015.08375.11875.06625.1225.0675.125.06875.13375.06625.13625.06875.1225.0825.125.06875.11625.0675.125.08125.13625.0675.1225.06625.1225.05625.13625.0675.1225.0675.13625.0825.12h-.695l-.13375.0125h-.12375l-.13625.01625-.135.0275-.13625.01-.135.03125-.1375.0125-.13375.02875-.12125.03875-.13875.0275-.13625.04125-.12125.02625-.10875.0275-.1225.015-.1225.02625-.12125.0275-.1225.01375-.125.0275-.12.015-.13625.01125-.13625.0275-.1075.015-.13625.01125-.1075.0125-.125.015h-.12125l-.12125.015-.1225-.2175-.11-.2325-.12375-.23125-.13375-.23-.12375-.24375-.12125-.2325-.135-.23125-.1225-.23h-.015zm5.5055 3.086-.02625.2025-.0275.2025-.01375.19375-.015.2025v.205l.02875.175.0675.17625.06625.16625.05625.05125.0675.04125h.095l.09375-.015.09625-.02625.10875-.04125.10875-.0425.11-.05125.10625-.05625.11125-.03875.095-.04125.095-.02875h.06875l.06625.01375.04.04125.015.06875.04125.2175.015.1875-.015.19125-.015.1775-.1475-.08-.16375-.07125-.16375-.08-.16125-.06875-.17625-.05375-.16375-.06875-.19-.03875-.17875-.04125-.1775-.02875-.19-.04-.19-.02625-.17625-.015-.205-.01h-.17375l-.1925.01-.175.015-.0975-.05125-.1075-.0325h-.12125l-.12375.0175-.135.025-.12375.01625h-.10875l-.1075-.02625-.08125-.04375-.0825-.04-.08125-.05625-.08125-.05375-.07-.0675-.08-.05375-.08125-.06875-.08125-.06625-.06875-.0675-.06875-.07125-.0675-.06875-.0825-.08-.0675-.08125-.05375-.0825-.0675-.06875-.06625-.08.20375-.06875.20125-.0675.21875-.05375.2175-.05375.2175-.06875.23-.05375.2175-.04125.2325-.04125.21625-.04.23125-.02875.2175-.0125.2325-.015h.21625l.21875.015.21625.0125.20375.04375zm-.70563 3.2471.0675-.015.08125-.01125.0825-.015h.08125l.0675-.015h.2425l.09625.015h.16375l.09625.02625.09375.015.0825.015.095.01125.0825.015.09375.025.09625.02875.09375.0275.09375.02625.09625.04125.10875.04.1075.04125.09625.04125.05625.17625.0925.1625.12375.17625.15125.19.1475.17875.14875.19.15125.18875.135.205-.11-.0275-.1075-.02625-.11-.0125-.0925-.02875-.11125-.0125-.10875-.015-.1075-.015-.11-.01125-.10625-.015h-.0975l-.12125-.0125h-.1075l-.095-.015-.11125-.01375h-.10625l-.11-.0125-.03875-.13375-.07125-.125-.06875-.1225-.07875-.1075-.0825-.0975-.10875-.0925-.09625-.095-.10875-.08375-.09375-.0925-.10875-.08-.10875-.07125-.095-.0925-.11-.085-.08125-.09375-.09375-.095-.0675-.095zm2.0385 2.937.1075.0125h.1225l.1225.01375.10875.0125.12375.0125.12125.015.1225.01375.1075.0125.12375.0275.1225.01375.12125.0275.11.02625.12125.0425.10875.01125.12.0425.125.04125.08125.175.0825.19125.09625.19.065.17875.09625.175.0825.19125.08125.19.09375.17625-.09375-.0125-.09625-.0275-.095-.01375-.095-.015-.08-.0125-.09875-.02875-.0925-.0125-.08125-.015-.11-.0125-.08125-.01125-.09625-.015-.0925-.015-.08125-.0125-.0975-.01375h-.09375l-.09625-.015-.06875-.0925-.08125-.095-.0675-.09625-.08125-.10875-.06875-.09625-.0675-.095-.06625-.095-.06875-.095-.07-.095-.06625-.095-.0675-.1075-.07-.0975-.06625-.09375-.05375-.0975-.05625-.0925-.06625-.1075zm2.35112 3.3666.08125.015h.0675l.08375.02625h.14875l.065.015.06875.015.07.01125h.06625l.06875.03h.14875l.08375.0125h.06625l.06875.01125h.0675l.12125.17875.1075.17625.12375.175.11.16625.10875.16125.10875.17625.12125.1775.1225.18875h-.28375l-.0975.01375h-.27125l-.0825.015h-.38l-.095.0125h-.08125l-.095.01375h-.09375l-.04125-.21875-.055-.215-.05625-.205-.05125-.18875-.06875-.205-.09375-.19-.09875-.17625-.13375-.1925zm1.80788 6.3086.08-.0125.0825-.01375.095-.0275.08125-.02875.09625-.0275.0825-.015.08-.02625.08125-.0125.09625-.015.08375-.02625.09125-.0125.0825-.015.095-.01125.0825-.015.095-.015.08-.0125-.01125.28625-.0425.3125-.1075.325-.125.32625-.14875.325-.1625.3125-.1775.3125-.20375.27375-.0675.0125-.08125.01375-.06875.0275-.08.015-.0825.01125-.0675.0275-.06875.015h-.08l-.07.02625-.06625.015-.0825.02625-.0825.0125-.065.015-.07.015-.0675.02375-.06875.015.095-.3125.11125-.2975.0925-.3125.11-.3125.11-.30125.09375-.3125.08-.3125.07-.2975z"/>
    <path fill="#d61f27" d="M381.88925 542.56966h-.01125l.04.67875.25875-.67875h-.2875z"/>
    <path fill="#d61f27" fill-rule="evenodd" d="m383.05887 542.37656-.09375.235-.095.21375-.0975.2175-.1075.2325-.095.23125-.11.2175-.09375.2175-.095.2325.13625-.11.13625-.09625.14875-.095.13375-.1075.125-.1075.1225-.12375.12-.1225.11-.16375.0675-.1075.07125-.12125.05125-.125.055-.14875.0425-.13375.04-.1375.04125-.13625.0375-.1375-.06625.0275-.08125.02875-.08125.0125-.08125.0275-.09625.01375-.08125.0275-.0825.02625-.08125.0125z"/>
    <path fill="#d61f27" d="m384.92112 541.94416-.03875.02875h-.08125l-.0425.025h-.12125l-.06875.19-.055.1775-.06625.18875-.06875.19125-.05375.19-.055.17625-.055.19-.0525.19.1075-.19.09625-.19.1075-.19125.1075-.1875.11-.205.09375-.19125.0975-.2025.08125-.19h-.0425zm-.2975.05375h.01375-.01375z"/>
    <path fill="#d61f27" fill-rule="evenodd" d="m383.2505 524.92776.05375.125.05375.11875.07.1375.065.1075.07.11.08.095.0825.1075.08125.11.08125.095.09375.095.08125.08.09875.0975.09375.08125.0825.0825.09375.06625.10875.08.1775 1.7-.16375-.06625-.14875-.11-.15-.095-.135-.095-.13875-.125-.12-.11875-.11-.1225-.09375-.16125-.4075-2.395z"/>
    <path fill="#d61f27" d="m384.0245 529.19566.0675.255.06875.265.05375.2525.06875.24625.055.27125.06625.25875.04375.25875.0925.04125.08125.04375.0825.02625.08.0375.07.01375.095.0375.06625.03125.0975.0275-.04125-.17375-.04125-.18125-.0275-.17375-.03875-.1925-.04375-.19125-.04-.175-.04125-.19-.025-.17625-.12375-.0675-.12125-.06875-.11125-.0825-.11-.0825-.105-.10625-.0975-.13625-.09375-.14875-.095-.17875.0675.25875z"/>
    <path fill="#d61f27" fill-rule="evenodd" d="m384.74337 531.83216.09625.11.11.1075.09375.095.11.06875.1225.0675.1075.06625.12125.04125.10875.0425.07.19.07875.19.08375.17625.09625.16375.08.1775.11.16125.095.14875.12125.16375-.175-.0125-.15125-.04125-.10875-.05375-.1225-.0825-.09375-.1075-.08375-.1225-.08125-.13625-.09375-.16375-.1075-.14875-.09625-.135-.095-.1625-.09625-.17875-.07875-.16125-.08375-.15125-.06625-.16375-.055-.14875h-.01625zm1.864 2.9101.4475.16375.88375 1.27375-.68-.57875-.65125-.85875zm1.836 2.539.08.11.0675.095.0675.095.0825.11.0675.0925.06875.11.08.09125.06875.11125.0675.09625.07.10875.0825.09625.08.1075.06875.095.08125.11.08.1075.08125.10875.06875.06875.0675.08125.0825.0675.06875.05375.06625.06875.0825.04125.09625.05375.0675.03875-.0675-.12125-.08125-.1075-.0825-.1225-.0675-.1225-.0825-.10875-.0825-.1075-.0675-.1225-.06875-.1075-.09375-.125-.0675-.11-.08125-.10625-.08125-.11-.0675-.1225-.0825-.1075-.07-.1225-.08125-.095-.08-.04125-.08375-.02625-.06625-.0425-.06625-.02625-.07-.04125-.06875-.04-.0675-.04125-.06625-.04125zm2.01175 3.2471.0925.0825.08375.06875.09375.05375.08125.05625.095.025.09625.02875.08.02625.0825.0275.0675.1075.07.1225.06875.11125.065.12.07.11.0675.11.06625.1075.07.11.0675.1075.0675.1075.0675.12375.08125.1075.06875.1075.08125.11.0675.1225.08125.10875-.09375-.0675-.09625-.06875-.09375-.06625-.09625-.07-.08-.08125-.0825-.0675-.08-.06875-.0825-.08125-.06875-.10875-.0825-.08125-.065-.11-.06875-.1075-.0825-.0925-.0675-.0975-.055-.095-.0675-.1075-.07-.095-.07875-.0975-.07-.09625-.0675-.0925-.0675-.1075-.0825-.11-.06625-.095-.0675-.0975z"/>
  </g>
</svg>