<?xml version="1.0" encoding="UTF-8" standalone="no"?>
<!-- Created with Inkscape (http://www.inkscape.org/) -->

<svg
   width="64"
   height="64"
   viewBox="0 0 16.933333 16.933333"
   version="1.1"
   id="svg1"
   xmlns="http://www.w3.org/2000/svg"
   xmlns:svg="http://www.w3.org/2000/svg">
  <defs
     id="defs1" />
  <g
     id="layer1">
   <!-- Updated to use currentColor for dynamic theming (was hard-coded fill & stroke) -->
   <path
      fill="currentColor"
      d="M 8.4151393,4.4628068 C 6.6546478,2.8631083 6.6879,2.7105925 5.350736,2.5468085 3.871381,2.7765695 2.7987287,3.4860308 2.3221049,4.2948303 2.1876651,5.3076022 2.3966792,5.8466688 3.1082794,6.4422454 3.8114398,6.9439702 4.7287248,6.4821341 5.6001586,6.2266288 4.251123,6.932129 3.3440848,7.1761187 2.1831874,8.2228512 1.6092352,9.1974548 1.4527932,9.6505088 1.7685694,10.48094 c 1.1394467,1.042787 2.3495213,0.973004 3.757671,0.288144 1.1622269,-1.2143183 1.6429697,-2.1560429 2.408874,-3.2118321 0.4190867,1.2311518 0.9791636,2.4270562 1.0691641,3.7404791 -0.00356,1.247221 -0.2424568,2.25911 -0.6913015,3.061048 -0.078412,0.641061 -0.8327149,0.808639 -1.5343715,1.360665 0.5950964,0.527379 1.230839,-0.128689 1.9861523,0.07826 0.8245173,-1.694831 1.2820612,-1.547248 1.3392782,-3.173066 0.02725,-0.774235 -0.04408,-1.370903 -0.04779,-1.83599 C 9.8076663,9.5128297 9.6595633,9.0931937 9.2104008,8.0295802 l 1.7547342,2.2648018 c 1.025932,0.667539 2.5653,0.242624 4.00767,-0.4699548 0.838436,-0.6100799 0.836857,-1.388163 0.802958,-2.1727098 C 15.667878,6.784039 14.317177,6.5645832 13.498518,6.2299856 L 10.325814,5.5033192 C 10.959124,4.9685299 11.411395,4.6890334 12.473638,4.2337632 13.830781,3.8883641 14.93575,4.6538246 15.052454,3.3254549 14.971209,2.4676634 13.736304,1.5848406 13.22241,1.2462275 10.49005,1.195009 10.717471,1.4735437 9.60169,2.1727099 8.8025373,3.0585372 8.7403629,3.81077 8.4151393,4.4628068 Z"
      id="path2" />
  </g>
</svg>
