<svg data-line-id="pumpkin" width="48" height="48" viewBox="0 0 48 48" xmlns="http://www.w3.org/2000/svg">
  <ellipse cx="24" cy="30" rx="16" ry="12" fill="currentColor"/>
  <path d="M24 18 Q20 24 24 30 Q28 24 24 18" stroke="currentColor" stroke-width="2" fill="none" opacity="0.7"/>
  <path d="M16 30 Q12 28 16 26" stroke="currentColor" stroke-width="2" fill="none" opacity="0.7"/>
  <path d="M32 30 Q36 28 32 26" stroke="currentColor" stroke-width="2" fill="none" opacity="0.7"/>
  <polygon points="18,26 22,22 20,30" fill="currentColor" opacity="0.9"/>
  <polygon points="30,26 26,22 28,30" fill="currentColor" opacity="0.9"/>
  <polygon points="24,32 22,36 26,36" fill="currentColor" opacity="0.9"/>
  <path d="M18 38 Q22 42 26 38" stroke="currentColor" stroke-width="2" fill="none" opacity="0.9"/>
  <rect x="22" y="12" width="4" height="8" fill="currentColor" opacity="0.6" rx="2"/>
  <path d="M20 12 Q16 8 12 12" stroke="currentColor" stroke-width="2" fill="none" opacity="0.6"/>
  <path d="M28 12 Q32 8 36 12" stroke="currentColor" stroke-width="2" fill="none" opacity="0.6"/>
</svg>
